M48
;Layer_Color=9474304
;FILE_FORMAT=4:4
METRIC,LZ
;TYPE=PLATED
T1F00S00C0.3000
T3F00S00C1.0000
T4F00S00C1.1000
T5F00S00C1.5000
T6F00S00C3.2000
;TYPE=NON_PLATED
T7F00S00C3.2000
%
T01
X0008625Y0010125
Y0011125
X00161839Y00130363
X0014925Y00146
X0015425Y0019925
X00165Y00206062
X00177Y00207
X00171Y00193
X0017525Y0022675
X00198Y002285
X0022Y00228
X0020975Y0018975
X00253Y00178
X0028225Y0017525
X003025Y0015475
X003085Y000845
X00334Y00077
X00354Y00081
X00305Y00231
X00296Y00229
X00141Y0023475
Y00213
X00118Y002125
X0011825Y0019
X0008Y00214
X00057505Y0021838
X0006Y00228
X0004
Y00236
X00034Y00221
Y00213
Y00205
Y00197
X000785Y00242
X00092312Y00286391
X0009375Y0032
X0014275Y0032725
X0017375Y00327
X00168Y0035525
X0014025Y00356
X001265Y00362
X001995Y00364771
X00199421Y003555
X0019775Y00345834
X001825Y0028625
X00159Y00279
X0043475Y0028275
X00455Y00253
X0044285Y0015465
X00477Y0016125
X004765Y0009125
X004725Y0003825
X003765Y000675
X00375Y00096
X003937Y000863
X00613Y00074
X00679Y00129
X0067Y0015625
X00646Y001965
X00542Y00229
X00582Y00285
X00569Y00326
X0062075Y0033575
X00599Y00412
X00591Y00429096
X00567Y00447
X00577Y00392
X00293Y004
X00284Y0040025
X00241125Y00414282
X0024125Y004335
X0021775
X00194Y00444
X00177Y00414
X00171Y00407
X0017475Y00376
X00163Y00377
X00114Y004076
X001047Y004103
X000979Y004171
X000535Y0043625
X00068Y00516
X00231Y00465
X00245Y0046425
X002555Y0046325
X00281Y0046325
X00301Y00458
X00302Y00448
X00301Y00469
T03
X002015Y000135
X002465
Y000785
X002015
X006065Y002625
Y003075
X006715
Y002625
T04
X001162Y00088
X001416
X00167
X0029045Y0012573
X0031585
X0034125
Y0020193
X0031585
X0029045
X002794Y000254
X003048
X003302
X003556
X000554Y0031975
X0003
Y0034515
X000554
X0036665Y0020193
X0039205
X0041745
X0044285
X0046825
X0049365
X0051905
X0054445
X0056985
X0059525
X0062065
Y0012573
X0059525
X0056985
X0054445
X0051905
X0049365
X0046825
X0044285
X0041745
X0039205
X0036665
X00381Y000254
X004064
X004318
X004572
X00508
X005334
X005588
X005842
X006096
X00635
X00662Y004182
Y004436
Y00469
X00635Y00508
X006096
X005842
X005588
X005334
X00508
X004826
X004572
X0041656
X0039116
X0036576
X0034036
X0031496
X0028956
X0026416
X0023876
X0021336
X0018796
X00146Y00446
Y004206
Y003952
Y003698
X000754Y00385
X0005
X000246
Y004104
X0005
X000754
X000664Y004696
X00041
X000156
Y00495
X00041
X000664
T05
X00021Y00026
Y00135
T06
X001397Y000254
X006604Y000762
X0066Y00359
T07
X001524Y00508
M30
