G04*
G04 #@! TF.GenerationSoftware,Altium Limited,Altium Designer,20.1.14 (287)*
G04*
G04 Layer_Physical_Order=1*
G04 Layer_Color=255*
%FSLAX44Y44*%
%MOMM*%
G71*
G04*
G04 #@! TF.SameCoordinates,7BFD3521-CE32-4739-868A-3B6082625FC7*
G04*
G04*
G04 #@! TF.FilePolarity,Positive*
G04*
G01*
G75*
%ADD11C,0.4000*%
%ADD14R,1.3000X0.9000*%
%ADD15R,0.9000X1.3000*%
%ADD16R,3.5000X2.2000*%
%ADD17R,0.6000X2.2000*%
%ADD18R,2.7000X2.0000*%
%ADD19R,2.5000X2.6000*%
%ADD20R,2.6000X2.5000*%
%ADD21R,1.1000X0.6000*%
%ADD22R,0.6000X1.1000*%
%ADD23R,1.6000X3.0000*%
%ADD24R,0.8000X0.8000*%
%ADD25R,1.4000X1.6000*%
%ADD26R,1.9000X1.9000*%
%ADD27R,1.3500X0.4000*%
%ADD28R,1.5000X0.5500*%
%ADD29R,0.5500X1.5000*%
%ADD30R,0.6858X0.5588*%
%ADD31R,0.5588X0.6858*%
%ADD32R,1.3000X0.7000*%
%ADD33R,0.7000X1.3000*%
%ADD34R,0.9000X0.6000*%
%ADD63R,1.9000X1.9000*%
%ADD64C,1.9000*%
%ADD70C,1.0160*%
%ADD71C,0.3000*%
%ADD72C,0.6000*%
%ADD73C,0.8000*%
%ADD74C,3.2000*%
%ADD75C,4.0000*%
%ADD76O,1.6000X2.0000*%
%ADD77R,1.6000X2.0000*%
%ADD78R,1.7000X1.7000*%
%ADD79C,1.7000*%
%ADD80R,2.0000X1.6000*%
%ADD81O,2.0000X1.6000*%
%ADD82C,7.4000*%
G04:AMPARAMS|DCode=83|XSize=2mm|YSize=1.2mm|CornerRadius=0.36mm|HoleSize=0mm|Usage=FLASHONLY|Rotation=0.000|XOffset=0mm|YOffset=0mm|HoleType=Round|Shape=RoundedRectangle|*
%AMROUNDEDRECTD83*
21,1,2.0000,0.4800,0,0,0.0*
21,1,1.2800,1.2000,0,0,0.0*
1,1,0.7200,0.6400,-0.2400*
1,1,0.7200,-0.6400,-0.2400*
1,1,0.7200,-0.6400,0.2400*
1,1,0.7200,0.6400,0.2400*
%
%ADD83ROUNDEDRECTD83*%
%ADD84C,0.6000*%
G36*
X308000Y374000D02*
X292000Y358000D01*
X278000D01*
Y406000D01*
X308000D01*
Y374000D01*
D02*
G37*
G36*
X20000Y241000D02*
X52000D01*
Y223000D01*
X41000D01*
X39000Y221000D01*
Y219000D01*
X38995D01*
Y209000D01*
Y202500D01*
Y196000D01*
Y189500D01*
X56000D01*
X56000Y181000D01*
X66820D01*
X67622Y180840D01*
X75621D01*
X77000Y179461D01*
Y176000D01*
X79000Y174000D01*
X84007D01*
X84450Y173912D01*
X91049D01*
X91912Y173049D01*
Y172000D01*
X92261Y170244D01*
X93000Y169138D01*
Y169000D01*
X101000Y161000D01*
X101000Y137000D01*
X117000Y153000D01*
X160000D01*
Y149408D01*
X143974Y133382D01*
X143090Y132059D01*
X128000D01*
X128000Y132059D01*
X127704Y132000D01*
X121000D01*
X121660Y131340D01*
Y126985D01*
X121337Y126663D01*
X120674Y125670D01*
X120501Y124800D01*
X101200D01*
X101000Y125000D01*
Y120643D01*
X100941Y120348D01*
Y98000D01*
X101000Y97705D01*
X101000Y74000D01*
X104000Y71000D01*
X185000D01*
Y90586D01*
X186000Y91000D01*
X217000D01*
Y49150D01*
X216942Y49075D01*
X216128Y47109D01*
X215850Y45000D01*
X216128Y42891D01*
X216942Y40925D01*
X217000Y40850D01*
Y3000D01*
X92000D01*
Y48000D01*
X77296D01*
X77000Y48059D01*
X77000Y48059D01*
X62059D01*
Y79000D01*
X62059Y79000D01*
X61826Y80170D01*
X61163Y81163D01*
X61163Y81163D01*
X61096Y81230D01*
X61231Y82500D01*
X83000D01*
Y82941D01*
X87000D01*
X87000Y82941D01*
X88170Y83174D01*
X89163Y83837D01*
X89163Y83837D01*
X92163Y86837D01*
X92826Y87829D01*
X93059Y89000D01*
X93059Y89000D01*
X93059Y115000D01*
X93059Y115000D01*
X93000Y115295D01*
Y122000D01*
X86296D01*
X86000Y122059D01*
X86000Y122059D01*
X62000Y122059D01*
X59898Y122059D01*
X59898Y122059D01*
X59602Y122000D01*
X56000D01*
Y118398D01*
X55941Y118102D01*
X55941Y118102D01*
X55941Y114957D01*
X55043Y114059D01*
X3000D01*
Y263000D01*
X20000D01*
Y241000D01*
D02*
G37*
G36*
X154000Y102000D02*
X124000D01*
Y78000D01*
X108000D01*
Y98000D01*
X104000D01*
Y120348D01*
X105270Y121000D01*
X106000Y121000D01*
X123000D01*
Y123000D01*
X123500D01*
Y124500D01*
X128000Y129000D01*
X154000D01*
Y102000D01*
D02*
G37*
G36*
X90000Y115000D02*
X90000Y89000D01*
X87000Y86000D01*
X3000D01*
X3000Y111000D01*
X59000D01*
X59000Y118102D01*
X59898Y119000D01*
X62000Y119000D01*
X86000Y119000D01*
X90000Y115000D01*
D02*
G37*
G36*
X195000Y127849D02*
Y114000D01*
X217000D01*
Y98000D01*
X179000D01*
Y76000D01*
X157000D01*
Y99000D01*
X167000D01*
Y101000D01*
Y114409D01*
X167118Y115000D01*
Y126990D01*
X169010Y128883D01*
X193966D01*
X195000Y127849D01*
D02*
G37*
G36*
X365500Y13000D02*
X365459Y12900D01*
X345100D01*
Y41500D01*
X345200Y41600D01*
X329400D01*
Y49645D01*
X329700Y50800D01*
X352900D01*
Y51108D01*
X353843Y51883D01*
X365500D01*
Y13000D01*
D02*
G37*
G36*
X59000Y79000D02*
Y45000D01*
X77000D01*
X84000Y38000D01*
Y3000D01*
X3000D01*
Y80000D01*
X58000D01*
X59000Y79000D01*
D02*
G37*
G36*
X430900Y84000D02*
X451000D01*
Y69000D01*
X433900D01*
X433700Y65100D01*
X414000D01*
Y103100D01*
X410000Y107100D01*
Y107500D01*
X409600D01*
X409148Y107952D01*
Y137748D01*
X409400Y138000D01*
X430900Y138000D01*
Y84000D01*
D02*
G37*
G36*
X478459Y136061D02*
X477911Y135242D01*
X477562Y133486D01*
Y105650D01*
X477911Y103894D01*
X478195Y103470D01*
X477516Y102200D01*
X470400D01*
X466000Y97800D01*
Y95711D01*
X465974Y95673D01*
X465741Y94502D01*
X465741Y94502D01*
X465741Y90100D01*
X465741Y90100D01*
X465974Y88929D01*
X466000Y88891D01*
Y85800D01*
X466700D01*
X472700Y79800D01*
X471900Y79000D01*
Y64200D01*
X456800D01*
X455300Y65700D01*
Y87900D01*
X449800Y93400D01*
X450100Y93700D01*
Y114400D01*
X459100Y123400D01*
Y135329D01*
X460872Y137100D01*
X477726D01*
X478459Y136061D01*
D02*
G37*
G36*
X480900Y95400D02*
X480900Y93900D01*
X490500Y83600D01*
Y42800D01*
X478235D01*
Y44985D01*
X478100Y45663D01*
Y80800D01*
X468800Y90100D01*
X468800Y94502D01*
X469698Y95400D01*
X480900Y95400D01*
D02*
G37*
G36*
X683000Y27000D02*
X651000D01*
X643144Y34856D01*
X642845Y35245D01*
X642456Y35544D01*
X630000Y48000D01*
X623000D01*
Y92000D01*
X643000Y112000D01*
X645000D01*
X648882Y115882D01*
X649000D01*
X649591Y116000D01*
X663000D01*
Y131348D01*
X664651Y133000D01*
X683000D01*
Y27000D01*
D02*
G37*
G36*
X470700Y235500D02*
Y214400D01*
X482500Y202600D01*
Y156039D01*
X481700Y155100D01*
X469300D01*
Y184300D01*
X458400Y198000D01*
X457400Y199000D01*
Y234249D01*
X459952Y236800D01*
X469400D01*
X470700Y235500D01*
D02*
G37*
G36*
X441800Y276300D02*
X436000D01*
X434500Y274800D01*
Y245489D01*
X432911Y243900D01*
X420541D01*
X420500Y244000D01*
Y257400D01*
X420300Y257600D01*
Y258500D01*
X420500Y258900D01*
Y265800D01*
X426700D01*
X428200Y267300D01*
Y289900D01*
X441800D01*
Y276300D01*
D02*
G37*
G36*
X655000Y179250D02*
X654000D01*
Y163000D01*
X640239D01*
X640000Y163239D01*
Y181000D01*
X638000D01*
Y198500D01*
X655000D01*
Y179250D01*
D02*
G37*
G36*
X663800Y396900D02*
X683000D01*
Y297400D01*
X682200Y296600D01*
X596317D01*
Y311717D01*
X604100Y319500D01*
X626600D01*
X626600Y334406D01*
X626867Y335750D01*
X626600Y337094D01*
X626600Y341900D01*
X621999Y346501D01*
Y376539D01*
X621650Y378295D01*
X621400Y378668D01*
X621400Y414788D01*
X622312Y415672D01*
X627900Y415500D01*
X644400D01*
X644800Y415900D01*
X663800Y396900D01*
D02*
G37*
D11*
X178000Y187500D02*
Y205459D01*
X167500Y177000D02*
X178000Y187500D01*
X346500Y60343D02*
Y79399D01*
X340900Y85000D02*
X346500Y79399D01*
X348843Y58000D02*
X353843D01*
X339899Y85600D02*
X340500Y85000D01*
X340900D01*
X346500Y60343D02*
X348843Y58000D01*
X542000Y229000D02*
X557000Y214000D01*
X542000Y229000D02*
X542000D01*
X557000Y174000D02*
Y214000D01*
X161000Y177000D02*
X167500D01*
X177000Y206459D02*
X178000Y205459D01*
X177000Y206459D02*
Y207000D01*
X404050Y141350D02*
X409500Y146800D01*
X404050Y99550D02*
Y141350D01*
X402500Y98000D02*
X404050Y99550D01*
X393700Y86300D02*
X400700D01*
X184000Y410101D02*
Y425500D01*
X172000Y398101D02*
X184000Y410101D01*
X127314Y192250D02*
X168836D01*
X170617Y192617D02*
X171000Y193000D01*
X169203Y192617D02*
X170617D01*
X168836Y192250D02*
X169203Y192617D01*
X196750Y296750D02*
X203343D01*
X209750Y297250D02*
X214000Y301500D01*
X196000Y296000D02*
X196750Y296750D01*
X203343D02*
X203843Y297250D01*
X209750D01*
X214000Y301500D02*
X216000D01*
X207843Y291000D02*
X222157D01*
X205093Y288250D02*
X207843Y291000D01*
X195800Y287800D02*
X196250Y288250D01*
X205093D01*
X174966Y296000D02*
X196000D01*
X213554Y299054D02*
X216000Y301500D01*
X204250Y189750D02*
X209750D01*
X196000Y198000D02*
X204250Y189750D01*
X381149Y79000D02*
X396650Y63500D01*
X353843Y94000D02*
X360343Y87500D01*
X370657D02*
X375000Y91843D01*
X360343Y87500D02*
X370657D01*
X318000Y94000D02*
X353843D01*
X375000Y91843D02*
Y96000D01*
X396650Y63500D02*
X397814D01*
X3100Y452900D02*
Y482500D01*
X209250Y209250D02*
Y228564D01*
X57500Y276750D02*
X60172Y274078D01*
Y269922D02*
Y274078D01*
X73250Y267250D02*
X85000Y255500D01*
X62843Y267250D02*
X73250D01*
X60172Y269922D02*
X62843Y267250D01*
X57505Y225505D02*
X60000Y228000D01*
X57505Y218380D02*
Y225505D01*
X184592Y287800D02*
X195800D01*
X216000Y312343D02*
X218343Y310000D01*
X222157Y291000D02*
X226500Y295343D01*
Y307657D01*
X218343Y310000D02*
X224157D01*
X226500Y307657D01*
X174000Y238500D02*
Y258000D01*
X57505Y216005D02*
Y218380D01*
X55500Y214000D02*
X57505Y216005D01*
X48745Y214000D02*
X55500D01*
D14*
X198000Y181000D02*
D03*
Y200000D02*
D03*
X442000Y57500D02*
D03*
Y76500D02*
D03*
X198000Y238000D02*
D03*
Y219000D02*
D03*
X216000Y301500D02*
D03*
Y320500D02*
D03*
X175000Y237500D02*
D03*
Y218500D02*
D03*
X636000Y474500D02*
D03*
Y455500D02*
D03*
X309000Y48500D02*
D03*
Y67500D02*
D03*
X359000Y48500D02*
D03*
Y67500D02*
D03*
X211750Y424000D02*
D03*
Y443000D02*
D03*
X221000Y180500D02*
D03*
Y199500D02*
D03*
X646000Y206000D02*
D03*
Y187000D02*
D03*
X232000Y104500D02*
D03*
Y123500D02*
D03*
X221000Y218500D02*
D03*
Y237500D02*
D03*
X114000Y130500D02*
D03*
Y111500D02*
D03*
X208000Y123500D02*
D03*
Y104500D02*
D03*
D15*
X463500Y52000D02*
D03*
X482500D02*
D03*
X18500Y436000D02*
D03*
X37500D02*
D03*
X399500Y51000D02*
D03*
X380500D02*
D03*
X19500Y522000D02*
D03*
X38500D02*
D03*
X464500Y229000D02*
D03*
X445500D02*
D03*
X421500Y98000D02*
D03*
X402500D02*
D03*
X440500D02*
D03*
X459500D02*
D03*
X650500Y125500D02*
D03*
X669500D02*
D03*
X49500Y295000D02*
D03*
X68500D02*
D03*
X30500Y253500D02*
D03*
X11500D02*
D03*
X238500Y347000D02*
D03*
X257500D02*
D03*
X242000Y236000D02*
D03*
X261000D02*
D03*
X426500Y252000D02*
D03*
X407500D02*
D03*
X464500D02*
D03*
X445500D02*
D03*
X132500Y235000D02*
D03*
X151500D02*
D03*
X463500Y75000D02*
D03*
X482500D02*
D03*
X262500Y482000D02*
D03*
X243500D02*
D03*
X402500Y75000D02*
D03*
X421500D02*
D03*
X588500Y332000D02*
D03*
X607500D02*
D03*
D16*
X161000Y177000D02*
D03*
D17*
X186400Y115000D02*
D03*
X173700D02*
D03*
X161000D02*
D03*
X148300D02*
D03*
X135600D02*
D03*
D18*
X23000Y65000D02*
D03*
Y97000D02*
D03*
D19*
X460500Y284000D02*
D03*
X411500D02*
D03*
D20*
X248000Y267000D02*
D03*
Y316000D02*
D03*
D21*
X193500Y413500D02*
D03*
Y432500D02*
D03*
X166500Y413500D02*
D03*
Y423000D02*
D03*
Y432500D02*
D03*
X233500Y143500D02*
D03*
Y162500D02*
D03*
X206500Y143500D02*
D03*
Y153000D02*
D03*
Y162500D02*
D03*
D22*
X67500Y276750D02*
D03*
X48500D02*
D03*
X67500Y249750D02*
D03*
X58000D02*
D03*
X48500D02*
D03*
X650500Y143750D02*
D03*
X669500D02*
D03*
X650500Y170750D02*
D03*
X660000D02*
D03*
X669500D02*
D03*
D23*
X72000Y100500D02*
D03*
Y141500D02*
D03*
Y26500D02*
D03*
Y67500D02*
D03*
D24*
X590000Y375000D02*
D03*
X606000D02*
D03*
X235000Y444500D02*
D03*
X251000D02*
D03*
X238000Y384000D02*
D03*
X254000D02*
D03*
X238000Y367000D02*
D03*
X254000D02*
D03*
D25*
X46495Y169000D02*
D03*
X46505Y233000D02*
D03*
D26*
X21995Y189000D02*
D03*
Y213000D02*
D03*
X246500Y78500D02*
D03*
D27*
X48745Y188000D02*
D03*
Y194500D02*
D03*
Y201000D02*
D03*
Y207500D02*
D03*
Y214000D02*
D03*
D28*
X196000Y272000D02*
D03*
Y280000D02*
D03*
Y288000D02*
D03*
Y296000D02*
D03*
Y304000D02*
D03*
Y312000D02*
D03*
Y320000D02*
D03*
Y328000D02*
D03*
X112000D02*
D03*
Y320000D02*
D03*
Y312000D02*
D03*
Y304000D02*
D03*
Y296000D02*
D03*
Y288000D02*
D03*
Y280000D02*
D03*
Y272000D02*
D03*
D29*
X182000Y342000D02*
D03*
X174000D02*
D03*
X166000D02*
D03*
X158000D02*
D03*
X150000D02*
D03*
X142000D02*
D03*
X134000D02*
D03*
X126000D02*
D03*
Y258000D02*
D03*
X134000D02*
D03*
X142000D02*
D03*
X150000D02*
D03*
X158000D02*
D03*
X166000D02*
D03*
X174000D02*
D03*
X182000D02*
D03*
D30*
X10000Y271808D02*
D03*
Y296192D02*
D03*
D31*
X624192Y243000D02*
D03*
X599808D02*
D03*
D32*
X172000Y384500D02*
D03*
Y365500D02*
D03*
X88000Y255500D02*
D03*
Y274500D02*
D03*
X216000Y283500D02*
D03*
Y264500D02*
D03*
X610500Y474500D02*
D03*
Y455500D02*
D03*
X583750Y474500D02*
D03*
Y455500D02*
D03*
X636000Y429500D02*
D03*
Y410500D02*
D03*
X670000Y205500D02*
D03*
Y186500D02*
D03*
X29000Y292250D02*
D03*
Y273250D02*
D03*
X670000Y222000D02*
D03*
Y241000D02*
D03*
X274000Y47500D02*
D03*
Y66500D02*
D03*
X253000Y162500D02*
D03*
Y143500D02*
D03*
X646000Y223500D02*
D03*
Y242500D02*
D03*
X336000Y67500D02*
D03*
Y86500D02*
D03*
Y47500D02*
D03*
Y66500D02*
D03*
D33*
X289500Y392250D02*
D03*
X270500D02*
D03*
X289750Y369750D02*
D03*
X270750D02*
D03*
X85750Y355000D02*
D03*
X104750D02*
D03*
X108500Y213000D02*
D03*
X89500D02*
D03*
X108500Y190000D02*
D03*
X89500D02*
D03*
X89500Y167000D02*
D03*
X108500D02*
D03*
X365500Y98000D02*
D03*
X384500D02*
D03*
X621500Y226000D02*
D03*
X602500D02*
D03*
X232000Y424000D02*
D03*
X251000D02*
D03*
X408500Y229000D02*
D03*
X427500D02*
D03*
X607500Y355000D02*
D03*
X588500D02*
D03*
X90500Y236000D02*
D03*
X109500D02*
D03*
X270500Y86000D02*
D03*
X289500D02*
D03*
X151500Y212000D02*
D03*
X132500D02*
D03*
D34*
X72000Y208500D02*
D03*
Y223500D02*
D03*
Y178500D02*
D03*
Y193500D02*
D03*
D63*
X671500Y262500D02*
D03*
D64*
X606500D02*
D03*
Y307500D02*
D03*
X671500D02*
D03*
X246500Y13500D02*
D03*
X201500D02*
D03*
Y78500D02*
D03*
D70*
X96000Y517000D02*
D03*
X669000D02*
D03*
Y17000D02*
D03*
X224000Y45000D02*
D03*
D71*
X261000Y212698D02*
X273000Y224698D01*
Y327500D02*
X318750Y373250D01*
X273000Y224698D02*
Y327500D01*
X282000Y321100D02*
X334500Y373600D01*
X269000Y211200D02*
X282000Y224200D01*
Y321100D01*
X289500Y226308D02*
X291789Y224018D01*
Y221533D02*
Y224018D01*
X289500Y231763D02*
X294000Y236263D01*
Y314750D01*
X350750Y371500D01*
X289500Y226308D02*
Y231763D01*
X276900Y206644D02*
X291789Y221533D01*
X298500Y233692D02*
X304000Y239192D01*
Y309500D02*
X365750Y371250D01*
X304000Y239192D02*
Y309500D01*
X305000Y231000D02*
X314000Y240000D01*
Y302000D02*
X391160Y379160D01*
X314000Y240000D02*
Y302000D01*
X290450Y201930D02*
X326000Y237480D01*
Y295250D02*
X416560Y385810D01*
X326000Y237480D02*
Y295250D01*
X315850Y202822D02*
X339000Y225972D01*
Y292750D01*
X394000Y347750D01*
X341250Y203622D02*
X352000Y214372D01*
Y288250D01*
X398000Y334250D01*
X296000Y229757D02*
X298500Y232257D01*
Y233692D01*
X296000Y229000D02*
Y229757D01*
X341250Y201930D02*
Y203622D01*
X289500Y75000D02*
Y86000D01*
X284638Y70138D02*
X289500Y75000D01*
X280638Y70138D02*
X284638D01*
X277000Y66500D02*
X280638Y70138D01*
X123000Y274131D02*
Y307500D01*
X121741Y272873D02*
X123000Y274131D01*
X112000Y272000D02*
X112873Y272873D01*
X121741D01*
X246500Y13500D02*
Y78500D01*
X570000Y258500D02*
X597500Y231000D01*
X570000Y258500D02*
Y307000D01*
X561000Y316000D02*
X570000Y307000D01*
X602500Y226000D02*
Y229000D01*
X600500Y231000D02*
X602500Y229000D01*
X597500Y231000D02*
X600500D01*
X561000Y316000D02*
Y375000D01*
X587000Y395000D02*
Y412000D01*
X633068Y452568D02*
X636000Y455500D01*
X627568Y452568D02*
X633068D01*
X587000Y412000D02*
X627568Y452568D01*
X587000Y395000D02*
X599500Y382500D01*
X533000Y224572D02*
Y443000D01*
X570000Y480000D02*
Y492000D01*
X533000Y443000D02*
X570000Y480000D01*
X519050Y201930D02*
Y446050D01*
X558250Y485250D02*
Y507450D01*
X519050Y446050D02*
X558250Y485250D01*
X493650Y436650D02*
X534000Y477000D01*
Y506000D01*
X493650Y201930D02*
Y436650D01*
X570000Y492000D02*
X584200Y506200D01*
X551000Y316750D02*
X559000Y308750D01*
X551000Y399192D02*
X597000Y445192D01*
X551000Y316750D02*
Y399192D01*
X543000Y241600D02*
X569850Y214750D01*
X543000Y436692D02*
X567200Y460892D01*
X543000Y241600D02*
Y436692D01*
X559000Y242500D02*
X595250Y206250D01*
X559000Y242500D02*
Y308750D01*
X279000Y115707D02*
X282477Y112230D01*
X269000Y176300D02*
X279000Y166300D01*
Y115707D02*
Y118917D01*
Y132543D02*
Y166300D01*
X278950Y118967D02*
Y132493D01*
X279000Y132543D01*
X278950Y118967D02*
X279000Y118917D01*
X290450Y125730D02*
Y167050D01*
X282250Y175250D02*
X290450Y167050D01*
X355150Y112230D02*
X366650Y123730D01*
X282477Y112230D02*
X355150D01*
X269000Y176300D02*
Y211200D01*
X261000Y174800D02*
X271000Y164800D01*
X261000Y174800D02*
Y212698D01*
X315850Y201930D02*
Y202822D01*
X361300Y105200D02*
X365500Y101000D01*
X271000Y112750D02*
X278550Y105200D01*
X361300D01*
X365500Y98000D02*
Y101000D01*
X276900Y192080D02*
X341250Y127730D01*
X276900Y192080D02*
Y206644D01*
X271000Y112750D02*
Y164800D01*
X334500Y373600D02*
Y488460D01*
X620750Y335750D02*
Y340974D01*
X617411Y344314D02*
X620750Y340974D01*
X617411Y344314D02*
Y376539D01*
X613500Y380450D02*
X617411Y376539D01*
X613500Y380450D02*
Y380450D01*
X611450Y382500D02*
X613500Y380450D01*
X591000Y360000D02*
X606000Y375000D01*
X599500Y382500D02*
X611450D01*
X602500Y226000D02*
X604500Y224000D01*
X569850Y201930D02*
Y214750D01*
X514500Y31900D02*
Y91800D01*
X493650Y112650D02*
Y125730D01*
Y112650D02*
X514500Y91800D01*
X508000Y25400D02*
X514500Y31900D01*
X519050Y120923D02*
X528400Y111573D01*
X533400Y25400D02*
Y30657D01*
X528400Y35657D02*
X533400Y30657D01*
X528400Y35657D02*
Y111573D01*
X519050Y120923D02*
Y125730D01*
X545400Y38800D02*
X558800Y25400D01*
X544450Y125730D02*
X545400Y124780D01*
Y38800D02*
Y124780D01*
X586500Y48500D02*
X609600Y25400D01*
X586500Y111873D02*
X595250Y120623D01*
X586500Y48500D02*
Y111873D01*
X599300Y61100D02*
Y95000D01*
X618501Y114201D01*
Y123581D02*
X620650Y125730D01*
X618501Y114201D02*
Y123581D01*
X635000Y25400D02*
Y25400D01*
X599300Y61100D02*
X635000Y25400D01*
X595250Y120623D02*
Y125730D01*
X482150Y105650D02*
Y133486D01*
X500600Y45100D02*
Y87200D01*
X482150Y105650D02*
X500600Y87200D01*
X484250Y28750D02*
X500600Y45100D01*
X343650Y7250D02*
X484250D01*
X330200Y20700D02*
Y25400D01*
Y20700D02*
X343650Y7250D01*
X484250D02*
Y28750D01*
X66329Y338150D02*
X84479Y320000D01*
X112000D02*
X112000Y320000D01*
X62400Y338150D02*
X66329D01*
X84479Y320000D02*
X93750D01*
X93750Y320000D01*
X55400Y345150D02*
X62400Y338150D01*
X43400Y331750D02*
X63550D01*
X83550Y311750D02*
X111750D01*
X63550Y331750D02*
X83550Y311750D01*
X93750Y320000D02*
X112000D01*
X93750Y320000D02*
X93750Y320000D01*
X75771Y310750D02*
X82521Y304000D01*
X55400Y319750D02*
X64400Y310750D01*
X75771D01*
X74450Y305000D02*
X83450Y296000D01*
X44750Y305000D02*
X74450D01*
X30000Y319750D02*
X44750Y305000D01*
X83450Y296000D02*
X112000D01*
X82521Y304000D02*
X110250D01*
X214800Y407000D02*
X248950D01*
X255950Y414000D02*
X255950D01*
X248950Y407000D02*
X255950Y414000D01*
X255950D02*
X260750Y418800D01*
Y426942D01*
X292500Y440300D02*
Y447692D01*
X217100Y398900D02*
X251100D01*
X292500Y440300D01*
X186250Y358750D02*
Y378450D01*
X214800Y407000D01*
X191250Y342000D02*
Y373050D01*
X217100Y398900D01*
X199500Y364771D02*
X226929Y392200D01*
X255500D02*
X302000Y438700D01*
X226929Y392200D02*
X255500D01*
X302000Y438700D02*
Y448000D01*
X147250Y444750D02*
X169250D01*
X196000Y471500D02*
X233692D01*
X169250Y444750D02*
X196000Y471500D01*
X108679Y482000D02*
X123779Y466900D01*
X180829D02*
X196672Y482743D01*
X123779Y466900D02*
X180829D01*
X125700Y475900D02*
X177900D01*
X53750Y507750D02*
X93850D01*
X125700Y475900D01*
X199460Y497460D02*
Y512363D01*
X177900Y475900D02*
X199460Y497460D01*
X63023Y190028D02*
Y190028D01*
X58550Y194500D02*
X63023Y190028D01*
Y190028D02*
X67622Y185429D01*
X77521D01*
X48745Y194500D02*
X58550D01*
X533000Y224572D02*
X544450Y213122D01*
Y201930D02*
Y213122D01*
X154250Y199250D02*
X158500Y203500D01*
Y222287D01*
X77521Y185429D02*
X84450Y178500D01*
X98475Y242975D02*
X103257Y238192D01*
X98475Y242975D02*
Y242975D01*
X92950Y248500D02*
X98475Y242975D01*
X63250Y235500D02*
X90000D01*
X58000Y240750D02*
X63250Y235500D01*
X90000D02*
X90500Y236000D01*
X159500Y390437D02*
Y403308D01*
X146000Y416808D02*
X159500Y403308D01*
X40000Y271800D02*
X51800Y260000D01*
X71251D01*
X74000Y257251D01*
X146000Y416808D02*
Y420600D01*
X197750Y345834D02*
X211834D01*
X236318Y365318D02*
X238000Y367000D01*
X231318Y365318D02*
X236318D01*
X211834Y345834D02*
X231318Y365318D01*
X482150Y133486D02*
X496914Y148250D01*
X633500D01*
X253000Y162500D02*
Y178000D01*
Y162500D02*
X253250D01*
X258500Y66500D02*
X277000D01*
X603550Y412000D02*
X635150Y443600D01*
X599000Y412000D02*
X603550D01*
X610500Y448596D02*
Y455500D01*
X591000Y429096D02*
X610500Y448596D01*
X597000Y445192D02*
Y464000D01*
X635150Y443600D02*
X662000D01*
X561000Y375000D02*
X577000Y391000D01*
X567200Y460892D02*
Y460950D01*
X578750Y472500D01*
X577000Y391000D02*
Y392000D01*
X567000Y447000D02*
X575250D01*
X583750Y455500D01*
X301000Y456192D02*
Y458000D01*
X260750Y426942D02*
X301000Y467192D01*
Y469000D01*
X292500Y447692D02*
X301000Y456192D01*
X165000Y206062D02*
X166000Y205062D01*
X165000Y206062D02*
Y243450D01*
X89500Y213000D02*
Y216692D01*
X82692Y223500D02*
X89500Y216692D01*
X70500Y223500D02*
X82692D01*
X64005Y217005D02*
X70500Y223500D01*
X199000Y465000D02*
X231000D01*
X166500Y432500D02*
X199000Y465000D01*
X233692Y471500D02*
X240942Y464250D01*
X245000D01*
X58000Y240750D02*
Y249750D01*
X42500Y249000D02*
X47750D01*
X38000Y253500D02*
X42500Y249000D01*
X47750D02*
X48500Y249750D01*
X30500Y253500D02*
X38000D01*
X48500Y249750D02*
X58000D01*
X196672Y482743D02*
X206367D01*
X224860Y501237D01*
Y512363D01*
X172000Y365500D02*
X174750Y368250D01*
Y376000D01*
X150470Y381407D02*
X159500Y390437D01*
X139343Y381407D02*
X150470D01*
X569850Y39750D02*
Y125730D01*
Y39750D02*
X584200Y25400D01*
X199421Y355500D02*
X227921Y384000D01*
X166064Y342064D02*
Y353314D01*
X168000Y355250D01*
X123000Y307500D02*
X142750Y327250D01*
X142324Y358074D02*
Y366124D01*
X140250Y356000D02*
X142324Y358074D01*
X173750Y327000D02*
Y340750D01*
X159964Y365500D02*
X172000D01*
X150000Y355537D02*
X159964Y365500D01*
X365750Y371250D02*
Y507990D01*
X365760Y508000D01*
X391160Y379160D02*
Y508000D01*
X416560Y385810D02*
Y508000D01*
X420250Y347750D02*
X444750Y372250D01*
Y459750D01*
X457250Y472250D01*
X394000Y347750D02*
X420250D01*
X457250Y472250D02*
Y507950D01*
X398000Y334250D02*
X439000D01*
X636000Y474500D02*
X636745Y473755D01*
X645243D02*
X649257Y469740D01*
X636745Y473755D02*
X645243D01*
X649257Y469740D02*
X661260D01*
X662000Y469000D01*
X608750Y505500D02*
Y508000D01*
X580750Y474500D02*
X583750D01*
X583993Y474743D01*
Y480743D02*
X608750Y505500D01*
X583993Y474743D02*
Y480743D01*
X578750Y472500D02*
Y472500D01*
X463500Y358750D02*
Y447500D01*
X439000Y334250D02*
X463500Y358750D01*
X340360Y502482D02*
X350750Y492092D01*
Y371500D02*
Y492092D01*
X314960Y508000D02*
X334500Y488460D01*
X340360Y502482D02*
Y508000D01*
X289560D02*
X290560Y507000D01*
X318750Y373250D02*
Y478810D01*
X290560Y507000D02*
X318750Y478810D01*
X281000Y463250D02*
Y497440D01*
X289560Y506000D01*
X28000Y482000D02*
X108679D01*
X96500Y172000D02*
Y174950D01*
X101500Y167000D02*
X108500D01*
X96500Y172000D02*
X101500Y167000D01*
X92950Y178500D02*
X96500Y174950D01*
X159500Y223287D02*
Y250243D01*
X165000Y243450D02*
X166000Y244450D01*
Y258000D01*
X159250Y250493D02*
X159500Y250243D01*
X159250Y250493D02*
Y256750D01*
X99945Y272000D02*
X112000D01*
X227800Y135750D02*
X235700D01*
X242000Y117550D02*
Y129450D01*
X235700Y135750D02*
X242000Y129450D01*
X239950Y115500D02*
X242000Y117550D01*
X232500Y115500D02*
X239950D01*
X230743Y105757D02*
Y113743D01*
Y105757D02*
X232000Y104500D01*
X255000D01*
X230743Y113743D02*
X232500Y115500D01*
X206500Y153000D02*
X208000Y151500D01*
X212050D01*
X227800Y135750D01*
X80050Y248500D02*
X92950D01*
X74000Y254550D02*
X80050Y248500D01*
X91400Y401000D02*
X137000D01*
X75400Y385000D02*
X91400Y401000D01*
X137000D02*
X142800Y395200D01*
X146000D01*
X158000Y258000D02*
X159250Y256750D01*
X158500Y222287D02*
X159500Y223287D01*
X74000Y254550D02*
Y257251D01*
X225000Y421300D02*
Y434500D01*
X235000Y444500D01*
X384500Y98000D02*
Y113602D01*
X392050Y121152D01*
X64005Y215688D02*
Y217005D01*
X64000Y215683D02*
X64005Y215688D01*
X64000Y210757D02*
Y215683D01*
X63000Y201000D02*
X70500Y193500D01*
X48745Y201000D02*
X63000D01*
X70500Y193500D02*
X72000D01*
X60493Y207250D02*
X64000Y210757D01*
X48995Y207250D02*
X60493D01*
X48745Y207500D02*
X48995Y207250D01*
X108500Y213000D02*
X117500D01*
X118000Y212500D01*
X108500Y190000D02*
X118250D01*
X88750Y189250D02*
X89500Y190000D01*
X83500Y189250D02*
X88750D01*
X72000Y193500D02*
X79250D01*
X83500Y189250D01*
X142324Y366124D02*
X146000Y369800D01*
X132500Y374563D02*
X139343Y381407D01*
X132500Y368000D02*
Y374563D01*
X126500Y362000D02*
X132500Y368000D01*
X606500Y262500D02*
X671500D01*
X85000Y274500D02*
X97445D01*
X99945Y272000D01*
X67500Y276750D02*
X82750D01*
X85000Y274500D01*
X173750Y340750D02*
X174500Y341500D01*
X174000Y342000D02*
X174500Y341500D01*
X227921Y384000D02*
X238000D01*
X166000Y342000D02*
X166064Y342064D01*
X182000Y342000D02*
X182000Y342000D01*
X182000Y354500D02*
X186250Y358750D01*
X196000Y328000D02*
Y337250D01*
X191250Y342000D02*
X196000Y337250D01*
X182000Y342000D02*
Y354500D01*
X84450Y178500D02*
X92950D01*
X248000Y337500D02*
X257500Y347000D01*
X248000Y303250D02*
Y337500D01*
X228250Y283500D02*
X248000Y303250D01*
Y250000D02*
Y267000D01*
Y250000D02*
X257000Y241000D01*
X258000D01*
X261000Y238000D01*
Y236000D02*
Y238000D01*
X216000Y264500D02*
X245500D01*
X248000Y267000D01*
X216000Y264500D02*
Y268250D01*
X212250Y272000D02*
X216000Y268250D01*
X196000Y272000D02*
X212250D01*
X196000Y280000D02*
X209500D01*
X213000Y283500D01*
X216000D01*
X228250D01*
X254000Y367000D02*
X268750D01*
X270750Y369000D01*
Y369750D01*
X254000Y384000D02*
X265250D01*
X270500Y389250D01*
Y392250D01*
X109500Y236000D02*
Y236192D01*
X107500Y238192D02*
X109500Y236192D01*
X103257Y238192D02*
X107500D01*
X28279Y272529D02*
X29008Y271800D01*
X40000D01*
X110250Y304000D02*
X111000Y304750D01*
X111750Y311750D02*
X112000Y312000D01*
X30000Y345150D02*
X43400Y331750D01*
X111750Y304000D02*
X112000D01*
X111000Y304750D02*
X111750Y304000D01*
X67215Y376215D02*
X83429Y360000D01*
X83750D02*
X85750Y358000D01*
X83429Y360000D02*
X83750D01*
X85750Y355000D02*
Y358000D01*
X72400Y348100D02*
Y363958D01*
X48529Y369500D02*
X66858D01*
X72400Y363958D01*
X50000Y385000D02*
X50814D01*
X59599Y376215D01*
X67215D01*
X24600Y385000D02*
X46100Y363500D01*
X59000D01*
X67400Y355100D01*
X38000Y380029D02*
X48529Y369500D01*
X67400Y344150D02*
Y355100D01*
X72400Y348100D02*
X80000Y340500D01*
X67400Y344150D02*
X83300Y328250D01*
X38000Y398400D02*
X50000Y410400D01*
X38000Y380029D02*
Y398400D01*
X132750Y343250D02*
X134000Y342000D01*
X132750Y343250D02*
Y350450D01*
X128200Y355000D02*
X132750Y350450D01*
X104750Y355000D02*
X128200D01*
X126000Y341750D02*
Y342000D01*
X124750Y340500D02*
X126000Y341750D01*
X80000Y340500D02*
X124750D01*
X10000Y271808D02*
X10721Y272529D01*
X28279D01*
X111750Y328250D02*
X112000Y328000D01*
X83300Y328250D02*
X111750D01*
X217200Y413500D02*
X225000Y421300D01*
X193500Y413500D02*
X217200D01*
X251000Y424000D02*
Y444500D01*
X251000Y424000D02*
X251000Y424000D01*
X314960Y508000D02*
Y510000D01*
X166500Y423000D02*
Y432500D01*
X164000Y423000D02*
X166500D01*
X152500Y434500D02*
X164000Y423000D01*
X127250Y434500D02*
X152500D01*
X104500Y457250D02*
X127250Y434500D01*
X66750Y469250D02*
X106500D01*
X129750Y446000D01*
X146000D01*
X41000Y469600D02*
X53350Y457250D01*
X104500D01*
X301960Y523000D02*
X314960Y510000D01*
X235497Y523000D02*
X301960D01*
X224860Y512363D02*
X235497Y523000D01*
X215096Y528000D02*
X322360D01*
X199460Y512363D02*
X215096Y528000D01*
X322360D02*
X340360Y510000D01*
X15600Y469600D02*
X28000Y482000D01*
X41000Y495000D02*
X53750Y507750D01*
X427500Y226000D02*
Y229000D01*
X421257Y219757D02*
X427500Y226000D01*
X420777Y219757D02*
X421257D01*
X417450Y216430D02*
X420777Y219757D01*
X417450Y201930D02*
Y216430D01*
X445500Y250000D02*
Y252000D01*
X427500Y232000D02*
X445500Y250000D01*
X427500Y229000D02*
Y232000D01*
X460500Y283500D02*
Y284000D01*
X445500Y268500D02*
X460500Y283500D01*
X445500Y252000D02*
Y268500D01*
X408500Y218380D02*
Y229000D01*
X392050Y201930D02*
X408500Y218380D01*
X407500Y252000D02*
X408500Y251000D01*
Y229000D02*
Y251000D01*
X407500Y280000D02*
X411500Y284000D01*
X407500Y252000D02*
Y280000D01*
X255000Y104500D02*
X270500Y89000D01*
Y86000D02*
Y89000D01*
X206500Y153000D02*
Y162500D01*
X253250D02*
X253500Y162750D01*
X233500Y143500D02*
X253000D01*
X233500Y143500D02*
X233500Y143500D01*
X246500Y78500D02*
X258500Y66500D01*
X392050Y121152D02*
Y125730D01*
X660000Y170750D02*
Y201750D01*
X646000Y206000D02*
X655750D01*
X660000Y201750D01*
X646000Y206000D02*
Y223500D01*
X646500Y242000D02*
X669000D01*
X646000Y242500D02*
X646500Y242000D01*
X669000D02*
X670000Y241000D01*
Y261000D01*
X671500Y262500D01*
X606500Y261327D02*
Y262500D01*
Y261327D02*
X624192Y243635D01*
Y243000D02*
Y243635D01*
X590500Y360000D02*
X591000D01*
X588500Y358000D02*
X590500Y360000D01*
X588500Y355000D02*
Y358000D01*
X66400Y469600D02*
X66750Y469250D01*
X146000Y446000D02*
X147250Y444750D01*
X578750Y472500D02*
X580750Y474500D01*
X620650Y201930D02*
Y203930D01*
X604500Y220080D02*
X620650Y203930D01*
X604500Y220080D02*
Y224000D01*
X650500Y143750D02*
Y146250D01*
X620650Y176100D02*
X650500Y146250D01*
X620650Y176100D02*
Y201930D01*
X649750Y143000D02*
X650500Y143750D01*
X638750Y143000D02*
X649750D01*
X633500Y148250D02*
X638750Y143000D01*
X595250Y201930D02*
Y206250D01*
X534000Y506000D02*
Y507400D01*
X150000Y342000D02*
Y355537D01*
X636000Y429500D02*
X648700D01*
X660000Y418200D01*
X662000D01*
X669500Y170750D02*
Y186000D01*
X670000Y186500D01*
X669500Y170750D02*
X669750Y170500D01*
Y156500D02*
Y170500D01*
Y156500D02*
X670000Y156250D01*
X290450Y201930D02*
Y201930D01*
X315850Y125730D02*
Y141400D01*
X302500Y154750D02*
X315850Y141400D01*
X366493Y282257D02*
Y284743D01*
X403250Y321500D02*
X456420D01*
X366650Y201930D02*
Y282100D01*
X366493Y284743D02*
X403250Y321500D01*
X366493Y282257D02*
X366650Y282100D01*
X341250Y125730D02*
Y127730D01*
X366650Y123730D02*
Y125730D01*
X478000Y343080D02*
Y437500D01*
X456420Y321500D02*
X478000Y343080D01*
X457200Y508000D02*
X457250Y507950D01*
X482600Y466600D02*
Y508000D01*
X463500Y447500D02*
X482600Y466600D01*
X508000Y508000D02*
X509000Y507000D01*
Y468500D02*
Y507000D01*
X478000Y437500D02*
X509000Y468500D01*
X610500Y474500D02*
X611000Y475000D01*
X628500Y499500D02*
X635000Y506000D01*
X627500Y499500D02*
X628500D01*
X611000Y483000D02*
X627500Y499500D01*
X611000Y475000D02*
Y483000D01*
X635000Y506000D02*
Y508000D01*
X607500Y474500D02*
X610500D01*
X597000Y464000D02*
X607500Y474500D01*
X584200Y506200D02*
Y508000D01*
X558250Y507450D02*
X558800Y508000D01*
X533400D02*
X534000Y507400D01*
D72*
X161000Y115000D02*
Y129524D01*
X24600Y410400D02*
X38100Y423900D01*
X53250Y436000D02*
X53500Y436250D01*
X297500Y74071D02*
X298000Y74571D01*
X277500Y48000D02*
Y50750D01*
X298000Y74571D02*
Y94571D01*
X297500Y70750D02*
Y74071D01*
X277500Y50750D02*
X297500Y70750D01*
X277000Y47500D02*
X277500Y48000D01*
X274000Y47500D02*
X277000D01*
X334000Y76500D02*
X338000Y72500D01*
X334000Y76500D02*
Y77000D01*
X463370Y148250D02*
X484250D01*
X495000Y159000D01*
X542000D01*
X663250Y140250D02*
X668500D01*
X652000Y129000D02*
X653000Y130000D01*
X650500Y125500D02*
X652000Y127000D01*
Y129000D01*
X653000Y130000D02*
Y130000D01*
X663250Y140250D01*
X668500D02*
X669500Y141250D01*
X542000Y159000D02*
X557000Y174000D01*
X373485Y58000D02*
X376985Y54500D01*
X353843Y58000D02*
X373485D01*
X380500Y51000D02*
Y53000D01*
X379000Y54500D02*
X380500Y53000D01*
X376985Y54500D02*
X379000D01*
X177000Y237500D02*
X187000Y227500D01*
X175000Y237500D02*
X177000D01*
X174000Y238500D02*
X175000Y237500D01*
X186500Y164500D02*
Y225571D01*
X187000Y226071D01*
Y227500D01*
X306800Y48000D02*
X307300Y48500D01*
X309000D02*
X311000D01*
X277500Y48000D02*
X306800D01*
X295071Y97500D02*
X298000Y94571D01*
X283929Y97500D02*
X295071D01*
X283179Y96750D02*
X283929Y97500D01*
X307300Y48500D02*
X309000D01*
X277250Y96750D02*
X283179D01*
X245037Y153392D02*
X260179D01*
X264500Y149071D01*
Y137929D02*
Y149071D01*
X607500Y330000D02*
Y355000D01*
X590200Y273505D02*
Y314700D01*
X606000Y328500D02*
X607500Y330000D01*
X604000Y328500D02*
X606000D01*
X590200Y314700D02*
X604000Y328500D01*
X583833Y267138D02*
X590200Y273505D01*
X577800Y289200D02*
X582000Y285000D01*
X569000Y325000D02*
X577800Y316200D01*
Y289200D02*
Y316200D01*
X409500Y146800D02*
X435000D01*
X397814Y63500D02*
X405071D01*
X411071Y57500D01*
X451000D01*
X435000Y146800D02*
X442850Y154650D01*
X400700Y86300D02*
X402500Y84500D01*
X463500Y50000D02*
Y52000D01*
X465000Y48500D02*
X468603D01*
X463500Y50000D02*
X465000Y48500D01*
X472117Y38633D02*
Y44985D01*
X468603Y48500D02*
X472117Y44985D01*
X304800Y25400D02*
Y44019D01*
X305500Y44719D02*
Y47000D01*
X304800Y44019D02*
X305500Y44719D01*
Y47000D02*
X307000Y48500D01*
X309000D01*
X324985Y58485D02*
X333000Y66500D01*
X311000Y48500D02*
X320985Y58485D01*
X324985D01*
X97900Y417100D02*
X104700Y410300D01*
X91100Y423900D02*
X97900Y417100D01*
X104700Y410300D02*
X107400Y407600D01*
X114000D01*
X38100Y423900D02*
X91100D01*
X238760Y502753D02*
X239301D01*
X243157Y498897D01*
Y498356D02*
Y498897D01*
Y498356D02*
X253000Y488513D01*
Y467564D02*
Y488513D01*
Y467564D02*
X253000Y467564D01*
Y465750D02*
Y467564D01*
Y465750D02*
X255500Y463250D01*
X262500Y482000D02*
X264000Y480500D01*
X217250Y455750D02*
X251686D01*
X252186Y455250D02*
X258814D01*
X251686Y455750D02*
X252186Y455250D01*
X264000Y460437D02*
Y480500D01*
X258814Y455250D02*
X264000Y460437D01*
X262500Y482000D02*
X263330Y482830D01*
X176500Y414500D02*
X177000Y414000D01*
X184000Y425500D02*
X191000Y432500D01*
X148300Y115000D02*
Y129056D01*
X173244Y154000D01*
X176000D02*
X186500Y164500D01*
X173244Y154000D02*
X176000D01*
X161000Y129524D02*
X166476Y135000D01*
X196500D01*
X206000Y123500D02*
X208000D01*
X204500Y125000D02*
X206000Y123500D01*
X204500Y125000D02*
Y127000D01*
X196500Y135000D02*
X204500Y127000D01*
X172750Y293784D02*
X174966Y296000D01*
X196000Y198000D02*
X198000Y200000D01*
X650500Y123500D02*
Y125500D01*
X334000Y68500D02*
X338000Y72500D01*
X334000Y68500D02*
X336000Y66500D01*
X333000D02*
X336000D01*
X232718Y420282D02*
Y427718D01*
X18500Y436000D02*
Y438000D01*
Y420018D02*
Y436000D01*
X175000Y209000D02*
Y218500D01*
Y209000D02*
X177000Y207000D01*
X402500Y84500D02*
Y98000D01*
X354000Y81000D02*
X356000Y79000D01*
X381149D01*
X398000Y54500D02*
X399500Y53000D01*
X382500Y67500D02*
X395500Y54500D01*
X359000Y67500D02*
X382500D01*
X399500Y49000D02*
Y53000D01*
X395500Y54500D02*
X398000D01*
X216000Y320500D02*
Y337222D01*
Y312343D02*
Y320500D01*
Y337222D02*
X225778Y347000D01*
X182000Y258000D02*
X182000Y258000D01*
X172750Y279393D02*
Y293784D01*
X182000Y258000D02*
Y270143D01*
X172750Y279393D02*
X182000Y270143D01*
X72750Y242000D02*
X78500D01*
X67500Y247250D02*
X72750Y242000D01*
X167500Y407000D02*
X171000D01*
X172000Y384500D02*
Y398101D01*
X166250Y408250D02*
X167500Y407000D01*
X166250Y408250D02*
Y413250D01*
X17000Y439500D02*
X18500Y438000D01*
X16500Y439500D02*
X17000D01*
X3100Y452900D02*
X16500Y439500D01*
X220000Y219500D02*
Y228000D01*
X218186Y237500D02*
X221000D01*
X209250Y228564D02*
X218186Y237500D01*
X198000Y181000D02*
X198250Y180750D01*
X220750D01*
X167500Y414500D02*
X176500D01*
X583833Y262167D02*
X599808Y246192D01*
Y243000D02*
Y246192D01*
X583833Y262167D02*
Y267138D01*
X120250Y228015D02*
Y245750D01*
X88000Y255500D02*
X110500D01*
X120250Y245750D01*
X100000Y221571D02*
X102929Y224500D01*
X133000Y216314D02*
X137686Y221000D01*
X118064Y201500D02*
X127314Y192250D01*
X100000Y204429D02*
Y221571D01*
X150000Y235500D02*
X151500Y237000D01*
X137686Y221000D02*
X139500D01*
X132500Y215000D02*
X133000Y215500D01*
X102929Y201500D02*
X118064D01*
X139500Y221000D02*
X150000Y231500D01*
X133000Y215500D02*
Y216314D01*
X102929Y224500D02*
X116735D01*
X120250Y228015D01*
X100000Y204429D02*
X102929Y201500D01*
X132500Y212000D02*
Y215000D01*
X150000Y231500D02*
Y235500D01*
X142000Y246500D02*
Y258000D01*
Y246500D02*
X151500Y237000D01*
X85000Y255500D02*
X88000D01*
X48500Y276750D02*
X57500D01*
X3100Y482500D02*
X15600Y495000D01*
X225778Y347000D02*
X238500D01*
X402500Y75000D02*
Y84500D01*
X613000Y74000D02*
Y91000D01*
X649000Y122000D02*
X650500Y123500D01*
X644000Y122000D02*
X649000D01*
X613000Y91000D02*
X644000Y122000D01*
X263500Y110500D02*
Y136929D01*
X236000Y162500D02*
X240715Y157785D01*
Y157714D02*
Y157785D01*
X263500Y136929D02*
X264500Y137929D01*
X240715Y157714D02*
X245037Y153392D01*
X263500Y110500D02*
X277250Y96750D01*
X569000Y326000D02*
X577000D01*
X580343Y329343D01*
X569000Y325000D02*
Y326000D01*
X308500Y68000D02*
Y84500D01*
X318000Y94000D01*
X308500Y68000D02*
X309000Y67500D01*
X72309Y214000D02*
X80000D01*
X72309Y208809D02*
Y214000D01*
X194000Y444000D02*
X206750D01*
X209750Y441000D01*
X72000Y208500D02*
X72309Y208809D01*
X209750Y441000D02*
X211750Y443000D01*
X211750Y443000D01*
X67500Y247250D02*
Y249750D01*
X166500Y413500D02*
X167500Y414500D01*
X166250Y413250D02*
X166500Y413500D01*
X163000Y377000D02*
Y379750D01*
X167750Y384500D01*
X150000Y270000D02*
X159000Y279000D01*
X150000Y258000D02*
Y270000D01*
X472117Y38633D02*
X472500Y38250D01*
X133750Y234750D02*
X141000D01*
X133000Y235500D02*
X133750Y234750D01*
X583250Y336500D02*
X586000D01*
X577000Y362000D02*
X590000Y375000D01*
X577000Y342750D02*
X583250Y336500D01*
X586000D02*
X587125Y335375D01*
Y332625D02*
Y335375D01*
X577000Y342750D02*
Y362000D01*
X588500Y331843D02*
Y332000D01*
X580343Y329343D02*
X586000D01*
X588500Y331843D01*
X462000Y253000D02*
X464500Y250500D01*
X237407Y418000D02*
X241125Y414282D01*
X235000Y418000D02*
X237407D01*
X232718Y420282D02*
X235000Y418000D01*
X237500Y429750D02*
X241250Y433500D01*
X238760Y502753D02*
Y508000D01*
Y488740D02*
Y502753D01*
Y488740D02*
X243500Y484000D01*
Y482000D02*
Y484000D01*
X234750Y429750D02*
X237500D01*
X220000Y219500D02*
X221000Y218500D01*
X175250Y218750D02*
Y226750D01*
X77109Y286391D02*
X92312D01*
X68500Y295000D02*
X77109Y286391D01*
X132500Y235000D02*
X133000Y235500D01*
X175000Y218500D02*
X175250Y218750D01*
X198000Y219000D02*
Y228500D01*
X182000Y253250D02*
Y258000D01*
X191000Y432500D02*
X193500D01*
X211500Y443250D02*
X211750Y443000D01*
X211500Y443250D02*
Y450000D01*
X217250Y455750D01*
X263330Y507170D02*
X264160Y508000D01*
X263330Y482830D02*
Y507170D01*
X442850Y154650D02*
X442850D01*
Y201930D01*
X406400Y25400D02*
Y42100D01*
X399500Y49000D02*
X406400Y42100D01*
Y25400D02*
X431800D01*
X442850Y125730D02*
Y127730D01*
Y120483D02*
Y125730D01*
Y127730D02*
X463370Y148250D01*
X444175Y227675D02*
X445500Y229000D01*
X444175Y203255D02*
Y227675D01*
X442850Y201930D02*
X444175Y203255D01*
X464500Y250000D02*
Y250500D01*
X455000Y253000D02*
X462000D01*
X448000Y233500D02*
X464500Y250000D01*
X448000Y231500D02*
Y233500D01*
X445500Y229000D02*
X448000Y231500D01*
X206500Y125000D02*
X208000Y123500D01*
X206500Y125000D02*
Y143500D01*
X208000Y123500D02*
X232000D01*
X200000Y200000D02*
X209250Y209250D01*
X221000Y218500D02*
X223000D01*
X236000Y231500D01*
X239500D01*
X242000Y234000D01*
Y236000D01*
X221000Y199500D02*
Y218500D01*
X233500Y162500D02*
X236000D01*
X451000Y57500D02*
X456750Y51750D01*
X607500Y243000D02*
X621500Y229000D01*
X599808Y243000D02*
X607500D01*
X621500Y226000D02*
Y229000D01*
Y226000D02*
X627500D01*
X633750Y232250D02*
X656750D01*
X627500Y226000D02*
X633750Y232250D01*
X667000Y222000D02*
X670000D01*
X656750Y232250D02*
X667000Y222000D01*
X670000Y205500D02*
Y222000D01*
Y205500D02*
X673000D01*
X681750Y196750D01*
Y149000D02*
Y196750D01*
X676500Y143750D02*
X681750Y149000D01*
X669500Y143750D02*
X676500D01*
X669500Y141250D02*
Y143750D01*
X463250Y51750D02*
X463500Y52000D01*
X456750Y51750D02*
X463250D01*
X233500Y162500D02*
X234000Y163000D01*
Y169500D01*
X221000Y180500D02*
X223000D01*
X234000Y169500D01*
X220750Y180750D02*
X221000Y180500D01*
X49000Y294500D02*
X49500Y295000D01*
X49000Y277250D02*
Y294500D01*
X48500Y276750D02*
X49000Y277250D01*
X34750Y295000D02*
X49500D01*
X32000Y292250D02*
X34750Y295000D01*
X29000Y292250D02*
X32000D01*
X10000Y296192D02*
X22058D01*
X26000Y292250D01*
X29000D01*
X10000Y395800D02*
X24600Y410400D01*
X10000Y296192D02*
Y395800D01*
X15600Y495000D02*
Y498518D01*
X19500Y502418D01*
Y522000D01*
X24600Y410400D02*
Y413918D01*
X18500Y420018D02*
X24600Y413918D01*
X167750Y384500D02*
X172000D01*
X232718Y427718D02*
X234750Y429750D01*
X217367Y433117D02*
X217750Y433500D01*
X212867Y433117D02*
X217367D01*
X211500Y431750D02*
X212867Y433117D01*
X211500Y424250D02*
Y431750D01*
Y424250D02*
X211750Y424000D01*
X193500Y426343D02*
Y432500D01*
X195843Y424000D02*
X211750D01*
X193500Y426343D02*
X195843Y424000D01*
X150500Y213000D02*
X151500Y212000D01*
X141000Y213000D02*
X150500D01*
X198000Y200000D02*
X200000D01*
X198000Y238000D02*
X198250Y237750D01*
X220750D01*
X221000Y237500D01*
X182000Y253250D02*
X193500Y241750D01*
Y240500D02*
Y241750D01*
Y240500D02*
X196000Y238000D01*
X198000D01*
X114000Y90200D02*
X116200Y88000D01*
X114000Y111500D02*
X116000D01*
X380750Y25650D02*
X381000Y25400D01*
X380750Y25650D02*
Y50750D01*
X380500Y51000D02*
X380750Y50750D01*
X440500Y98000D02*
Y118133D01*
X442850Y120483D01*
D73*
X37500Y436000D02*
X53250D01*
X283750Y400000D02*
X284000Y400250D01*
X283750Y400000D02*
X289000Y394750D01*
X65500Y516000D02*
X68000D01*
X59500Y522000D02*
X65500Y516000D01*
X38500Y522000D02*
X59500D01*
X289500Y392250D02*
X289625Y392125D01*
Y369875D02*
Y392125D01*
Y369875D02*
X289750Y369750D01*
D74*
X152400Y508000D02*
D03*
D75*
X21000Y26000D02*
D03*
Y135000D02*
D03*
D76*
X187960Y508000D02*
D03*
X213360D02*
D03*
X238760D02*
D03*
X264160D02*
D03*
X289560D02*
D03*
X314960D02*
D03*
X340360D02*
D03*
X365760D02*
D03*
X391160D02*
D03*
X457200Y25400D02*
D03*
X431800D02*
D03*
X406400D02*
D03*
X381000D02*
D03*
X355600D02*
D03*
X330200D02*
D03*
X304800D02*
D03*
X457200Y508000D02*
D03*
X482600D02*
D03*
X508000D02*
D03*
X533400D02*
D03*
X558800D02*
D03*
X584200D02*
D03*
X609600D02*
D03*
X635000Y25400D02*
D03*
X609600D02*
D03*
X584200D02*
D03*
X558800D02*
D03*
X533400D02*
D03*
X141600Y88000D02*
D03*
X167000D02*
D03*
X442850Y125730D02*
D03*
X290450D02*
D03*
X315850D02*
D03*
X341250D02*
D03*
X366650D02*
D03*
X392050D02*
D03*
X417450D02*
D03*
X468250D02*
D03*
X493650D02*
D03*
X519050D02*
D03*
X544450D02*
D03*
X569850D02*
D03*
X595250D02*
D03*
X620650D02*
D03*
X290450Y201930D02*
D03*
X315850D02*
D03*
X341250D02*
D03*
X366650D02*
D03*
X392050D02*
D03*
X417450D02*
D03*
X442850D02*
D03*
X468250D02*
D03*
X493650D02*
D03*
X519050D02*
D03*
X544450D02*
D03*
X569850D02*
D03*
X595250D02*
D03*
D77*
X416560Y508000D02*
D03*
X279400Y25400D02*
D03*
X635000Y508000D02*
D03*
X508000Y25400D02*
D03*
X116200Y88000D02*
D03*
X620650Y201930D02*
D03*
D78*
X15600Y469600D02*
D03*
X24600Y385000D02*
D03*
X55400Y345150D02*
D03*
D79*
X41000Y469600D02*
D03*
X66400D02*
D03*
X15600Y495000D02*
D03*
X41000D02*
D03*
X66400D02*
D03*
X50000Y385000D02*
D03*
X75400D02*
D03*
X24600Y410400D02*
D03*
X50000D02*
D03*
X75400D02*
D03*
X30000Y319750D02*
D03*
X55400D02*
D03*
X30000Y345150D02*
D03*
D80*
X146000Y446000D02*
D03*
X662000Y469000D02*
D03*
D81*
X146000Y420600D02*
D03*
Y395200D02*
D03*
Y369800D02*
D03*
X662000Y443600D02*
D03*
Y418200D02*
D03*
D82*
X139700Y25400D02*
D03*
X660400Y76200D02*
D03*
X660000Y359000D02*
D03*
D83*
X21995Y168000D02*
D03*
Y234000D02*
D03*
D84*
X161839Y130363D02*
D03*
X53500Y436250D02*
D03*
X293000Y400000D02*
D03*
X334000Y77000D02*
D03*
X40000Y236000D02*
D03*
Y228000D02*
D03*
X284000Y400250D02*
D03*
X68000Y516000D02*
D03*
X296000Y229000D02*
D03*
X305000Y231000D02*
D03*
X34000Y221000D02*
D03*
Y197000D02*
D03*
Y205000D02*
D03*
X620750Y335750D02*
D03*
X393700Y86300D02*
D03*
X376500Y67500D02*
D03*
X97900Y417100D02*
D03*
X104700Y410300D02*
D03*
X114000Y407600D02*
D03*
X542000Y229000D02*
D03*
X177000Y414000D02*
D03*
X154250Y199250D02*
D03*
X171000Y193000D02*
D03*
X177000Y207000D02*
D03*
X209750Y189750D02*
D03*
X78500Y242000D02*
D03*
X171000Y407000D02*
D03*
X220000Y228000D02*
D03*
X582000Y285000D02*
D03*
X255500Y463250D02*
D03*
X599000Y412000D02*
D03*
X591000Y429096D02*
D03*
X569000Y326000D02*
D03*
X577000Y392000D02*
D03*
X567000Y447000D02*
D03*
X302000Y448000D02*
D03*
X301000Y458000D02*
D03*
Y469000D02*
D03*
X308500Y84500D02*
D03*
X165000Y206062D02*
D03*
X80000Y214000D02*
D03*
X194000Y444000D02*
D03*
X679000Y129000D02*
D03*
X231000Y465000D02*
D03*
X34000Y213000D02*
D03*
X375000Y96000D02*
D03*
X163000Y377000D02*
D03*
X174750Y376000D02*
D03*
X354000Y81000D02*
D03*
X613000Y74000D02*
D03*
X60000Y228000D02*
D03*
X159000Y279000D02*
D03*
X141000Y234750D02*
D03*
X199421Y355500D02*
D03*
X168000Y355250D02*
D03*
X142750Y327250D02*
D03*
X140250Y356000D02*
D03*
X173750Y327000D02*
D03*
X241125Y414282D02*
D03*
X241250Y433500D02*
D03*
X472500Y38250D02*
D03*
X281000Y463250D02*
D03*
X175250Y226750D02*
D03*
X245000Y464250D02*
D03*
X92312Y286391D02*
D03*
X477000Y161250D02*
D03*
X434750Y282750D02*
D03*
X646000Y196500D02*
D03*
X182500Y286250D02*
D03*
X198000Y228500D02*
D03*
X149250Y146000D02*
D03*
X442850Y154650D02*
D03*
X455000Y253000D02*
D03*
X93750Y320000D02*
D03*
X217750Y433500D02*
D03*
X253000Y178000D02*
D03*
X476500Y91250D02*
D03*
X141000Y213000D02*
D03*
X86250Y111250D02*
D03*
Y101250D02*
D03*
X57505Y218380D02*
D03*
X118000Y212500D02*
D03*
X118250Y190000D02*
D03*
X126500Y362000D02*
D03*
X197750Y345834D02*
D03*
X199500Y364771D02*
D03*
X670000Y156250D02*
D03*
X282250Y175250D02*
D03*
X302500Y154750D02*
D03*
M02*
