G04*
G04 #@! TF.GenerationSoftware,Altium Limited,Altium Designer,20.1.14 (287)*
G04*
G04 Layer_Color=65535*
%FSLAX44Y44*%
%MOMM*%
G71*
G04*
G04 #@! TF.SameCoordinates,7BFD3521-CE32-4739-868A-3B6082625FC7*
G04*
G04*
G04 #@! TF.FilePolarity,Positive*
G04*
G01*
G75*
%ADD10C,0.2000*%
%ADD11C,0.4000*%
%ADD12C,0.2540*%
%ADD13C,0.1000*%
D10*
X177400Y508068D02*
G03*
X177400Y508000I-25000J-68D01*
G01*
X633550Y170180D02*
G03*
X633550Y157480I0J-6350D01*
G01*
X80370Y455630D02*
Y508970D01*
X1630Y455630D02*
Y508970D01*
Y455630D02*
X80370D01*
X1630Y508970D02*
X80370D01*
X89370Y371030D02*
Y424370D01*
X10630Y371030D02*
Y424370D01*
Y371030D02*
X89370D01*
X10630Y424370D02*
X89370D01*
X16030Y305780D02*
X69370D01*
X16030Y359120D02*
X69370D01*
Y305780D02*
Y359120D01*
X16030Y305780D02*
Y359120D01*
X208160Y172720D02*
Y208280D01*
X187840D02*
X208160D01*
X187840Y172720D02*
Y208280D01*
Y172720D02*
X208160D01*
X455220Y41840D02*
X490780D01*
Y62160D01*
X455220D02*
X490780D01*
X455220Y41840D02*
Y62160D01*
X452160Y49220D02*
Y84780D01*
X431840D02*
X452160D01*
X431840Y49220D02*
Y84780D01*
Y49220D02*
X452160D01*
X14500Y110000D02*
X39000D01*
Y52000D02*
Y110000D01*
X7000Y52000D02*
X39000D01*
X7000D02*
Y110000D01*
X14500D01*
X392820Y303050D02*
X479180D01*
X392820Y264950D02*
Y303050D01*
Y264950D02*
X479180D01*
Y303050D01*
X267050Y248320D02*
Y334680D01*
X228950D02*
X267050D01*
X228950Y248320D02*
Y334680D01*
Y248320D02*
X267050D01*
X276750Y215830D02*
X633550D01*
X276750Y189830D02*
Y215830D01*
Y111830D02*
X633550D01*
X276750D02*
Y137830D01*
X633550Y170180D02*
Y215830D01*
Y111830D02*
Y157480D01*
X276750Y137830D02*
Y189830D01*
X187840Y210720D02*
X208160D01*
X187840D02*
Y246280D01*
X208160D01*
Y210720D02*
Y246280D01*
X205840Y328780D02*
X226160D01*
Y293220D02*
Y328780D01*
X205840Y293220D02*
X226160D01*
X205840D02*
Y328780D01*
X164840Y210220D02*
X185160D01*
X164840D02*
Y245780D01*
X185160D01*
Y210220D02*
Y245780D01*
X45780Y425840D02*
Y446160D01*
X10220Y425840D02*
X45780D01*
X10220D02*
Y446160D01*
X45780D01*
X625840Y447220D02*
X646160D01*
X625840D02*
Y482780D01*
X646160D01*
Y447220D02*
Y482780D01*
X372220Y40840D02*
Y61160D01*
X407780D01*
Y40840D02*
Y61160D01*
X372220Y40840D02*
X407780D01*
X298840Y75780D02*
X319160D01*
Y40220D02*
Y75780D01*
X298840Y40220D02*
X319160D01*
X298840D02*
Y75780D01*
X348840D02*
X369160D01*
Y40220D02*
Y75780D01*
X348840Y40220D02*
X369160D01*
X348840D02*
Y75780D01*
X46780Y511840D02*
Y532160D01*
X11220Y511840D02*
X46780D01*
X11220D02*
Y532160D01*
X46780D01*
X437220Y218840D02*
Y239160D01*
X472780D01*
Y218840D02*
Y239160D01*
X437220Y218840D02*
X472780D01*
X394220Y87840D02*
Y108160D01*
X429780D01*
Y87840D02*
Y108160D01*
X394220Y87840D02*
X429780D01*
X467780D02*
Y108160D01*
X432220Y87840D02*
X467780D01*
X432220D02*
Y108160D01*
X467780D01*
X201590Y451280D02*
X221910D01*
Y415720D02*
Y451280D01*
X201590Y415720D02*
X221910D01*
X201590D02*
Y451280D01*
X677780Y115340D02*
Y135660D01*
X642220Y115340D02*
X677780D01*
X642220D02*
Y135660D01*
X677780D01*
X210840Y207780D02*
X231160D01*
Y172220D02*
Y207780D01*
X210840Y172220D02*
X231160D01*
X210840D02*
Y207780D01*
X76780Y284840D02*
Y305160D01*
X41220Y284840D02*
X76780D01*
X41220D02*
Y305160D01*
X76780D01*
X3220Y243340D02*
Y263660D01*
X38780D01*
Y243340D02*
Y263660D01*
X3220Y243340D02*
X38780D01*
X635840Y178720D02*
X656160D01*
X635840D02*
Y214280D01*
X656160D01*
Y178720D02*
Y214280D01*
X221840Y131780D02*
X242160D01*
Y96220D02*
Y131780D01*
X221840Y96220D02*
X242160D01*
X221840D02*
Y131780D01*
X230220Y336840D02*
X265780D01*
Y357160D01*
X230220D02*
X265780D01*
X230220Y336840D02*
Y357160D01*
X233720Y225840D02*
X269280D01*
Y246160D01*
X233720D02*
X269280D01*
X233720Y225840D02*
Y246160D01*
X399220Y262160D02*
X434780D01*
X399220Y241840D02*
Y262160D01*
Y241840D02*
X434780D01*
Y262160D01*
X437220D02*
X472780D01*
X437220Y241840D02*
Y262160D01*
Y241840D02*
X472780D01*
Y262160D01*
X231160Y210220D02*
Y245780D01*
X210840D02*
X231160D01*
X210840Y210220D02*
Y245780D01*
Y210220D02*
X231160D01*
X124220Y224840D02*
X159780D01*
Y245160D01*
X124220D02*
X159780D01*
X124220Y224840D02*
Y245160D01*
X103840Y103220D02*
Y138780D01*
Y103220D02*
X124160D01*
Y138780D01*
X103840D02*
X124160D01*
X197840Y96220D02*
Y131780D01*
Y96220D02*
X218160D01*
Y131780D01*
X197840D02*
X218160D01*
X455220Y64840D02*
X490780D01*
Y85160D01*
X455220D02*
X490780D01*
X455220Y64840D02*
Y85160D01*
X235220Y492160D02*
X270780D01*
X235220Y471840D02*
Y492160D01*
Y471840D02*
X270780D01*
Y492160D01*
X394220Y64840D02*
X429780D01*
Y85160D01*
X394220D02*
X429780D01*
X394220Y64840D02*
Y85160D01*
X580220Y321840D02*
X615780D01*
Y342160D01*
X580220D02*
X615780D01*
X580220Y321840D02*
Y342160D01*
X583000Y368000D02*
X613000D01*
Y371500D02*
Y378500D01*
X583000Y382000D02*
X613000D01*
Y368000D02*
Y371500D01*
Y378500D02*
Y382000D01*
X583000Y368000D02*
Y382000D01*
X580000Y368000D02*
Y382000D01*
X583000D01*
X580000Y368000D02*
X583000D01*
X228000Y437500D02*
X258000D01*
Y441000D02*
Y448000D01*
X228000Y451500D02*
X258000D01*
Y437500D02*
Y441000D01*
Y448000D02*
Y451500D01*
X228000Y437500D02*
Y451500D01*
X225000Y437500D02*
Y451500D01*
X228000D01*
X225000Y437500D02*
X228000D01*
X231000Y377000D02*
X261000D01*
Y380500D02*
Y387500D01*
X231000Y391000D02*
X261000D01*
Y377000D02*
Y380500D01*
Y387500D02*
Y391000D01*
X231000Y377000D02*
Y391000D01*
X228000Y377000D02*
Y391000D01*
X231000D01*
X228000Y377000D02*
X231000D01*
Y360000D02*
X261000D01*
Y363500D02*
Y370500D01*
X231000Y374000D02*
X261000D01*
Y360000D02*
Y363500D01*
Y370500D02*
Y374000D01*
X231000Y360000D02*
Y374000D01*
X228000Y360000D02*
Y374000D01*
X231000D01*
X228000Y360000D02*
X231000D01*
X3000Y266000D02*
X17000D01*
X3000D02*
Y302000D01*
X17000Y266000D02*
Y302000D01*
X630000Y236000D02*
Y250000D01*
X594000Y236000D02*
X630000D01*
X594000Y250000D02*
X630000D01*
X161840Y358490D02*
X182160D01*
X161840D02*
Y391510D01*
X182160D01*
Y358490D02*
Y391510D01*
X263490Y382090D02*
Y402410D01*
X296510D01*
Y382090D02*
Y402410D01*
X263490Y382090D02*
X296510D01*
X263740Y359590D02*
Y379910D01*
X296760D01*
Y359590D02*
Y379910D01*
X263740Y359590D02*
X296760D01*
X77840Y281510D02*
X98160D01*
Y248490D02*
Y281510D01*
X77840Y248490D02*
X98160D01*
X77840D02*
Y281510D01*
X111760Y344840D02*
Y365160D01*
X78740Y344840D02*
X111760D01*
X78740D02*
Y365160D01*
X111760D01*
X82490Y202840D02*
Y223160D01*
X115510D01*
Y202840D02*
Y223160D01*
X82490Y202840D02*
X115510D01*
X82490Y179840D02*
Y200160D01*
X115510D01*
Y179840D02*
Y200160D01*
X82490Y179840D02*
X115510D01*
Y156840D02*
Y177160D01*
X82490Y156840D02*
X115510D01*
X82490D02*
Y177160D01*
X115510D01*
X205840Y257490D02*
X226160D01*
X205840D02*
Y290510D01*
X226160D01*
Y257490D02*
Y290510D01*
X600340Y448490D02*
X620660D01*
X600340D02*
Y481510D01*
X620660D01*
Y448490D02*
Y481510D01*
X573590Y448490D02*
X593910D01*
X573590D02*
Y481510D01*
X593910D01*
Y448490D02*
Y481510D01*
X625840Y403490D02*
X646160D01*
X625840D02*
Y436510D01*
X646160D01*
Y403490D02*
Y436510D01*
X391510Y87840D02*
Y108160D01*
X358490Y87840D02*
X391510D01*
X358490D02*
Y108160D01*
X391510D01*
X595490Y215840D02*
Y236160D01*
X628510D01*
Y215840D02*
Y236160D01*
X595490Y215840D02*
X628510D01*
X258010Y413840D02*
Y434160D01*
X224990Y413840D02*
X258010D01*
X224990D02*
Y434160D01*
X258010D01*
X434510Y218840D02*
Y239160D01*
X401490Y218840D02*
X434510D01*
X401490D02*
Y239160D01*
X434510D01*
X581490Y344840D02*
Y365160D01*
X614510D01*
Y344840D02*
Y365160D01*
X581490Y344840D02*
X614510D01*
X659840Y179490D02*
X680160D01*
X659840D02*
Y212510D01*
X680160D01*
Y179490D02*
Y212510D01*
X18840Y266240D02*
X39160D01*
X18840D02*
Y299260D01*
X39160D01*
Y266240D02*
Y299260D01*
X659840Y248010D02*
X680160D01*
Y214990D02*
Y248010D01*
X659840Y214990D02*
X680160D01*
X659840D02*
Y248010D01*
X263840Y73510D02*
X284160D01*
Y40490D02*
Y73510D01*
X263840Y40490D02*
X284160D01*
X263840D02*
Y73510D01*
X242840Y136490D02*
X263160D01*
X242840D02*
Y169510D01*
X263160D01*
Y136490D02*
Y169510D01*
X116510Y225840D02*
Y246160D01*
X83490Y225840D02*
X116510D01*
X83490D02*
Y246160D01*
X116510D01*
X635840Y249510D02*
X656160D01*
Y216490D02*
Y249510D01*
X635840Y216490D02*
X656160D01*
X635840D02*
Y249510D01*
X296510Y75840D02*
Y96160D01*
X263490Y75840D02*
X296510D01*
X263490D02*
Y96160D01*
X296510D01*
X125490Y201840D02*
Y222160D01*
X158510D01*
Y201840D02*
Y222160D01*
X125490Y201840D02*
X158510D01*
X325840Y93510D02*
X346160D01*
Y60490D02*
Y93510D01*
X325840Y60490D02*
X346160D01*
X325840D02*
Y93510D01*
Y73510D02*
X346160D01*
Y40490D02*
Y73510D01*
X325840Y40490D02*
X346160D01*
X325840D02*
Y73510D01*
X64380Y229970D02*
X79620D01*
X64380Y202030D02*
Y229970D01*
X79620Y202030D02*
Y229970D01*
X64380Y202030D02*
X79620D01*
X64380Y199970D02*
X79620D01*
X64380Y172030D02*
Y199970D01*
X79620Y172030D02*
Y199970D01*
X64380Y172030D02*
X79620D01*
X413480Y531400D02*
Y528068D01*
Y529734D01*
X423477D01*
X421811Y531400D01*
X282480Y2000D02*
Y5332D01*
Y3666D01*
X272483D01*
X274149Y2000D01*
X631920Y531400D02*
Y528068D01*
Y529734D01*
X641917D01*
X640251Y531400D01*
X511080Y2000D02*
Y5332D01*
Y3666D01*
X501083D01*
X502749Y2000D01*
X122600Y442920D02*
X125932D01*
X124266D01*
Y452917D01*
X122600Y451251D01*
X678000Y465000D02*
X681332D01*
X679666D01*
Y474997D01*
X678000Y473331D01*
X119280Y64600D02*
Y67932D01*
Y66266D01*
X109283D01*
X110949Y64600D01*
X68334Y168998D02*
X65002D01*
X66668D01*
Y160668D01*
X65002Y159002D01*
X63335D01*
X61669Y160668D01*
X71666Y168998D02*
X78331D01*
Y167332D01*
X71666Y160668D01*
Y159002D01*
X50000Y437997D02*
X53332D01*
X51666D01*
Y428000D01*
X50000D01*
X53332D01*
X64995Y436331D02*
X63329Y437997D01*
X59997D01*
X58331Y436331D01*
Y429666D01*
X59997Y428000D01*
X63329D01*
X64995Y429666D01*
X74992Y436331D02*
X73326Y437997D01*
X69994D01*
X68327Y436331D01*
Y434664D01*
X69994Y432998D01*
X73326D01*
X74992Y431332D01*
Y429666D01*
X73326Y428000D01*
X69994D01*
X68327Y429666D01*
X78324Y428000D02*
Y437997D01*
X83323D01*
X84989Y436331D01*
Y432998D01*
X83323Y431332D01*
X78324D01*
X88321Y428000D02*
X91653D01*
X89987D01*
Y437997D01*
X88321Y436331D01*
X84000Y479997D02*
X87332D01*
X85666D01*
Y470000D01*
X84000D01*
X87332D01*
X98995Y478331D02*
X97329Y479997D01*
X93997D01*
X92331Y478331D01*
Y471666D01*
X93997Y470000D01*
X97329D01*
X98995Y471666D01*
X108992Y478331D02*
X107326Y479997D01*
X103994D01*
X102327Y478331D01*
Y476665D01*
X103994Y474998D01*
X107326D01*
X108992Y473332D01*
Y471666D01*
X107326Y470000D01*
X103994D01*
X102327Y471666D01*
X112324Y470000D02*
Y479997D01*
X117323D01*
X118989Y478331D01*
Y474998D01*
X117323Y473332D01*
X112324D01*
X180003Y28000D02*
X188334D01*
X190000Y29666D01*
Y32998D01*
X188334Y34664D01*
X180003D01*
X181669Y44661D02*
X180003Y42995D01*
Y39663D01*
X181669Y37997D01*
X183335D01*
X185002Y39663D01*
Y42995D01*
X186668Y44661D01*
X188334D01*
X190000Y42995D01*
Y39663D01*
X188334Y37997D01*
X180003Y54658D02*
Y47994D01*
X190000D01*
Y54658D01*
X185002Y47994D02*
Y51326D01*
X190000Y57990D02*
X180003D01*
Y62989D01*
X181669Y64655D01*
X185002D01*
X186668Y62989D01*
Y57990D01*
Y61323D02*
X190000Y64655D01*
X593000Y267000D02*
X583003D01*
Y271998D01*
X584669Y273664D01*
X588002D01*
X589668Y271998D01*
Y267000D01*
Y270332D02*
X593000Y273664D01*
X583003Y283661D02*
Y276997D01*
X593000D01*
Y283661D01*
X588002Y276997D02*
Y280329D01*
X584669Y293658D02*
X583003Y291992D01*
Y288660D01*
X584669Y286994D01*
X586335D01*
X588002Y288660D01*
Y291992D01*
X589668Y293658D01*
X591334D01*
X593000Y291992D01*
Y288660D01*
X591334Y286994D01*
X583003Y303655D02*
Y296990D01*
X593000D01*
Y303655D01*
X588002Y296990D02*
Y300323D01*
X583003Y306987D02*
Y313652D01*
Y310319D01*
X593000D01*
X154668Y70999D02*
X152003D01*
X153336D01*
Y64334D01*
X152003Y63001D01*
X150670D01*
X149337Y64334D01*
X157334Y63001D02*
Y70999D01*
X161333D01*
X162666Y69666D01*
Y67000D01*
X161333Y65667D01*
X157334D01*
X169330Y63001D02*
Y70999D01*
X165332Y67000D01*
X170663D01*
X79335Y337998D02*
X76003D01*
X77669D01*
Y329668D01*
X76003Y328002D01*
X74337D01*
X72671Y329668D01*
X82668Y328002D02*
Y337998D01*
X87666D01*
X89332Y336332D01*
Y333000D01*
X87666Y331334D01*
X82668D01*
X99329Y328002D02*
X92664D01*
X99329Y334666D01*
Y336332D01*
X97663Y337998D01*
X94331D01*
X92664Y336332D01*
X99334Y400998D02*
X96002D01*
X97668D01*
Y392668D01*
X96002Y391002D01*
X94335D01*
X92669Y392668D01*
X109331Y400998D02*
X105998Y399332D01*
X102666Y396000D01*
Y392668D01*
X104332Y391002D01*
X107664D01*
X109331Y392668D01*
Y394334D01*
X107664Y396000D01*
X102666D01*
X90334Y495998D02*
X87002D01*
X88668D01*
Y487668D01*
X87002Y486002D01*
X85336D01*
X83669Y487668D01*
X100331Y495998D02*
X93666D01*
Y491000D01*
X96998Y492666D01*
X98665D01*
X100331Y491000D01*
Y487668D01*
X98665Y486002D01*
X95332D01*
X93666Y487668D01*
X109335Y434998D02*
X106003D01*
X107669D01*
Y426668D01*
X106003Y425002D01*
X104337D01*
X102671Y426668D01*
X112668Y425002D02*
Y434998D01*
X117666D01*
X119332Y433332D01*
Y430000D01*
X117666Y428334D01*
X112668D01*
X122664Y433332D02*
X124331Y434998D01*
X127663D01*
X129329Y433332D01*
Y431666D01*
X127663Y430000D01*
X125997D01*
X127663D01*
X129329Y428334D01*
Y426668D01*
X127663Y425002D01*
X124331D01*
X122664Y426668D01*
X333334Y487998D02*
X330002D01*
X331668D01*
Y479668D01*
X330002Y478002D01*
X328335D01*
X326669Y479668D01*
X341665Y478002D02*
Y487998D01*
X336666Y483000D01*
X343331D01*
X532334Y489998D02*
X529002D01*
X530668D01*
Y481668D01*
X529002Y480002D01*
X527336D01*
X525669Y481668D01*
X535666Y488332D02*
X537332Y489998D01*
X540664D01*
X542331Y488332D01*
Y486666D01*
X540664Y485000D01*
X538998D01*
X540664D01*
X542331Y483334D01*
Y481668D01*
X540664Y480002D01*
X537332D01*
X535666Y481668D01*
X657002Y498998D02*
X653669D01*
X655335D01*
Y490668D01*
X653669Y489002D01*
X652003D01*
X650337Y490668D01*
X660334Y489002D02*
Y498998D01*
X665332D01*
X666998Y497332D01*
Y494000D01*
X665332Y492334D01*
X660334D01*
X670331Y489002D02*
X673663D01*
X671997D01*
Y498998D01*
X670331Y497332D01*
X557334Y51998D02*
X554002D01*
X555668D01*
Y43668D01*
X554002Y42002D01*
X552336D01*
X550669Y43668D01*
X567331Y42002D02*
X560666D01*
X567331Y48666D01*
Y50332D01*
X565664Y51998D01*
X562332D01*
X560666Y50332D01*
X420000Y51998D02*
X416668D01*
X418334D01*
Y43668D01*
X416668Y42002D01*
X415002D01*
X413335Y43668D01*
X423332Y42002D02*
X426665D01*
X424998D01*
Y51998D01*
X423332Y50332D01*
D11*
X201414Y264000D02*
G03*
X201414Y264000I-1414J0D01*
G01*
X418157Y351000D02*
X408000D01*
X418157Y361157D01*
Y363696D01*
X415617Y366235D01*
X410539D01*
X408000Y363696D01*
X423235D02*
X425774Y366235D01*
X430853D01*
X433392Y363696D01*
Y353539D01*
X430853Y351000D01*
X425774D01*
X423235Y353539D01*
Y363696D01*
X448627Y351000D02*
X438470D01*
X448627Y361157D01*
Y363696D01*
X446088Y366235D01*
X441009D01*
X438470Y363696D01*
X453705D02*
X456244Y366235D01*
X461323D01*
X463862Y363696D01*
Y353539D01*
X461323Y351000D01*
X456244D01*
X453705Y353539D01*
Y363696D01*
X334000Y388235D02*
Y373000D01*
Y378078D01*
X344157Y388235D01*
X336539Y380617D01*
X344157Y373000D01*
X351774Y383157D02*
X356853D01*
X359392Y380617D01*
Y373000D01*
X351774D01*
X349235Y375539D01*
X351774Y378078D01*
X359392D01*
X364470Y383157D02*
Y375539D01*
X367009Y373000D01*
X374627D01*
Y383157D01*
X379705Y373000D02*
X387323D01*
X389862Y375539D01*
X387323Y378078D01*
X382244D01*
X379705Y380617D01*
X382244Y383157D01*
X389862D01*
X397480Y385696D02*
Y383157D01*
X394940D01*
X400019D01*
X397480D01*
Y375539D01*
X400019Y373000D01*
X407636Y383157D02*
Y375539D01*
X410175Y373000D01*
X417793D01*
Y383157D01*
X422871Y388235D02*
Y373000D01*
X430489D01*
X433028Y375539D01*
Y378078D01*
Y380617D01*
X430489Y383157D01*
X422871D01*
X438106Y388235D02*
Y373000D01*
Y380617D01*
X440645Y383157D01*
X445724D01*
X448263Y380617D01*
Y373000D01*
X478733Y385696D02*
X476194Y388235D01*
X471116D01*
X468577Y385696D01*
Y383157D01*
X471116Y380617D01*
X476194D01*
X478733Y378078D01*
Y375539D01*
X476194Y373000D01*
X471116D01*
X468577Y375539D01*
X483811Y388235D02*
Y373000D01*
Y380617D01*
X486351Y383157D01*
X491429D01*
X493968Y380617D01*
Y373000D01*
X501586Y383157D02*
X506664D01*
X509203Y380617D01*
Y373000D01*
X501586D01*
X499047Y375539D01*
X501586Y378078D01*
X509203D01*
X514282Y373000D02*
Y383157D01*
X521899D01*
X524438Y380617D01*
Y373000D01*
X529517D02*
Y388235D01*
Y378078D02*
X537134Y383157D01*
X529517Y378078D02*
X537134Y373000D01*
X547291Y383157D02*
X552369D01*
X554908Y380617D01*
Y373000D01*
X547291D01*
X544752Y375539D01*
X547291Y378078D01*
X554908D01*
X559987Y383157D02*
Y373000D01*
Y378078D01*
X562526Y380617D01*
X565065Y383157D01*
X567604D01*
X399000Y426000D02*
Y441235D01*
X406618D01*
X409157Y438696D01*
Y433618D01*
X406618Y431078D01*
X399000D01*
X404078D02*
X409157Y426000D01*
X421853D02*
X416774D01*
X414235Y428539D01*
Y433618D01*
X416774Y436157D01*
X421853D01*
X424392Y433618D01*
Y431078D01*
X414235D01*
X429470Y436157D02*
X432009D01*
Y433618D01*
X429470D01*
Y436157D01*
Y428539D02*
X432009D01*
Y426000D01*
X429470D01*
Y428539D01*
X442166Y441235D02*
Y428539D01*
X444705Y426000D01*
X449784D01*
X452323Y428539D01*
Y441235D01*
X457401Y426000D02*
Y436157D01*
X465019D01*
X467558Y433618D01*
Y426000D01*
X475175D02*
X480254D01*
X482793Y428539D01*
Y433618D01*
X480254Y436157D01*
X475175D01*
X472636Y433618D01*
Y428539D01*
X475175Y426000D01*
D12*
X172720Y520900D02*
X431800D01*
X172720Y495500D02*
Y520900D01*
Y495500D02*
X431800D01*
Y520900D01*
X264160Y37900D02*
X472440D01*
X264160Y12500D02*
Y37900D01*
Y12500D02*
X472440D01*
Y37900D01*
X441960Y495500D02*
X650240D01*
Y520900D01*
X441960D02*
X650240D01*
X441960Y495500D02*
Y520900D01*
X492760Y37900D02*
X650240D01*
X492760Y12500D02*
Y37900D01*
Y12500D02*
X650240D01*
Y37900D01*
X618000Y315000D02*
X639000D01*
X659000D01*
X618000Y255000D02*
X639000D01*
X658000D01*
X609000Y275000D02*
Y294000D01*
X669000Y276000D02*
Y294000D01*
X194000Y25000D02*
Y46000D01*
Y66000D01*
X254000Y25000D02*
Y46000D01*
Y65000D01*
X215000Y16000D02*
X234000D01*
X215000Y76000D02*
X233000D01*
X133100Y356000D02*
X158500D01*
X133100D02*
Y460000D01*
X158500D01*
Y356000D02*
Y460000D01*
X649100Y404000D02*
Y483000D01*
X674500D01*
X649100Y404000D02*
X674500D01*
Y483000D01*
X102200Y75100D02*
X181200D01*
X102200D02*
Y100500D01*
X181200Y75100D02*
Y100500D01*
X102200D02*
X181200D01*
X127000Y127000D02*
X129000D01*
X193000D02*
X195000D01*
Y165000D01*
X182000D02*
X195000D01*
X127000D02*
X140000D01*
X127000Y127000D02*
Y165000D01*
X190000Y420000D02*
Y426500D01*
X168500Y406500D02*
X191500D01*
X168500Y439000D02*
X191500D01*
X54500Y273250D02*
X61000D01*
X74500Y251750D02*
Y274750D01*
X42000Y251750D02*
Y274750D01*
X657000Y147250D02*
X663500D01*
X643500Y145750D02*
Y168750D01*
X676000Y145750D02*
Y168750D01*
X230000Y150000D02*
Y156500D01*
X208500Y136500D02*
X231500D01*
X208500Y169000D02*
X231500D01*
X83000Y92200D02*
X89500D01*
X100600Y103300D01*
Y121100D01*
Y148600D01*
X84700Y148500D02*
X99700D01*
X54700Y92200D02*
X61200D01*
X43600Y103300D02*
X54700Y92200D01*
X43600Y103300D02*
Y121100D01*
Y148600D01*
X44500Y148500D02*
X59500D01*
X83000Y18200D02*
X89500D01*
X100600Y29300D01*
Y47100D01*
Y74600D01*
X84700Y74500D02*
X99700D01*
X54700Y18200D02*
X61200D01*
X43600Y29300D02*
X54700Y18200D01*
X43600Y29300D02*
Y47100D01*
Y74600D01*
X44500Y74500D02*
X59500D01*
X33970Y162000D02*
X36470D01*
X34070Y239500D02*
X36570D01*
X-6630Y161500D02*
X9270D01*
X-7030D02*
Y240400D01*
X-6630D02*
X8270D01*
X1270Y162200D02*
Y240200D01*
X7370Y234000D02*
Y239500D01*
Y162000D02*
Y239500D01*
X8270Y240400D02*
X10970D01*
X9270Y161500D02*
X10870D01*
X-18630Y176250D02*
Y224750D01*
Y249000D01*
Y152000D02*
Y176250D01*
Y167000D02*
X-11630D01*
X-18630Y236000D02*
X-11630D01*
X-26630Y249000D02*
X-18630D01*
X-30630Y152000D02*
X-18630D01*
X-31630Y249000D02*
X-26630D01*
X-32630Y201000D02*
X-18630D01*
Y202000D01*
X-23630Y207000D02*
X-18630Y202000D01*
Y200000D02*
Y201000D01*
X-23630Y195000D02*
X-18630Y200000D01*
X52070Y179700D02*
Y183700D01*
X51970Y218300D02*
Y222300D01*
X118000Y264000D02*
Y266000D01*
Y264000D02*
X120000D01*
X118000Y336000D02*
X120000D01*
X118000Y334000D02*
Y336000D01*
X190000Y334000D02*
Y336000D01*
X188000D02*
X190000D01*
X189000Y265000D02*
X190000Y266000D01*
X188000Y264000D02*
X190000Y266000D01*
X7500Y303000D02*
X12500D01*
X593000Y240500D02*
Y245500D01*
D13*
X19000Y449000D02*
Y451666D01*
Y450333D01*
X11003D01*
X12335Y449000D01*
X28680Y363140D02*
Y365806D01*
Y364473D01*
X20683D01*
X22016Y363140D01*
X51320Y367010D02*
Y364344D01*
Y365677D01*
X59317D01*
X57984Y367010D01*
X261944Y448238D02*
Y441574D01*
X263277Y440241D01*
X265943D01*
X267276Y441574D01*
Y448238D01*
X211944Y363241D02*
Y371238D01*
X215943D01*
X217276Y369906D01*
Y367240D01*
X215943Y365907D01*
X211944D01*
X214610D02*
X217276Y363241D01*
X219942Y371238D02*
X225273Y363241D01*
Y371238D02*
X219942Y363241D01*
X211944Y387238D02*
X217276D01*
X214610D01*
Y379241D01*
X219942Y387238D02*
X225273Y379241D01*
Y387238D02*
X219942Y379241D01*
X550000Y100332D02*
Y95000D01*
X544668Y100332D01*
X543335D01*
X542003Y98999D01*
Y96333D01*
X543335Y95000D01*
X542003Y108329D02*
Y102997D01*
X546001D01*
X544668Y105663D01*
Y106996D01*
X546001Y108329D01*
X548667D01*
X550000Y106996D01*
Y104330D01*
X548667Y102997D01*
X320000Y97000D02*
Y99666D01*
Y98333D01*
X312003D01*
X313335Y97000D01*
X312003Y108996D02*
X313335Y106330D01*
X316001Y103665D01*
X318667D01*
X320000Y104998D01*
Y107663D01*
X318667Y108996D01*
X317334D01*
X316001Y107663D01*
Y103665D01*
X294000Y219000D02*
Y221666D01*
Y220333D01*
X286003D01*
X287335Y219000D01*
X294000Y229663D02*
X286003D01*
X290001Y225665D01*
Y230996D01*
X396759Y218944D02*
Y221610D01*
Y220277D01*
X388762D01*
X390094Y218944D01*
Y225609D02*
X388762Y226942D01*
Y229607D01*
X390094Y230940D01*
X395426D01*
X396759Y229607D01*
Y226942D01*
X395426Y225609D01*
X390094D01*
X514762Y225276D02*
Y219944D01*
X518760D01*
X517427Y222610D01*
Y223943D01*
X518760Y225276D01*
X521426D01*
X522759Y223943D01*
Y221277D01*
X521426Y219944D01*
X11943Y315241D02*
Y323238D01*
X7944Y319240D01*
X13276D01*
X7944Y348905D02*
X9277Y350238D01*
X11943D01*
X13276Y348905D01*
Y347573D01*
X11943Y346240D01*
X10610D01*
X11943D01*
X13276Y344907D01*
Y343574D01*
X11943Y342241D01*
X9277D01*
X7944Y343574D01*
X77332Y315000D02*
X72000D01*
X77332Y320332D01*
Y321665D01*
X75999Y322997D01*
X73333D01*
X72000Y321665D01*
M02*
