G04*
G04 #@! TF.GenerationSoftware,Altium Limited,Altium Designer,20.1.14 (287)*
G04*
G04 Layer_Physical_Order=2*
G04 Layer_Color=16711680*
%FSLAX44Y44*%
%MOMM*%
G71*
G04*
G04 #@! TF.SameCoordinates,7BFD3521-CE32-4739-868A-3B6082625FC7*
G04*
G04*
G04 #@! TF.FilePolarity,Positive*
G04*
G01*
G75*
%ADD11C,0.4000*%
%ADD26R,1.9000X1.9000*%
%ADD63R,1.9000X1.9000*%
%ADD64C,1.9000*%
%ADD71C,0.3000*%
%ADD72C,0.6000*%
%ADD74C,3.2000*%
%ADD75C,4.0000*%
%ADD76O,1.6000X2.0000*%
%ADD77R,1.6000X2.0000*%
%ADD78R,1.7000X1.7000*%
%ADD79C,1.7000*%
%ADD80R,2.0000X1.6000*%
%ADD81O,2.0000X1.6000*%
%ADD82C,7.4000*%
G04:AMPARAMS|DCode=83|XSize=2mm|YSize=1.2mm|CornerRadius=0.36mm|HoleSize=0mm|Usage=FLASHONLY|Rotation=0.000|XOffset=0mm|YOffset=0mm|HoleType=Round|Shape=RoundedRectangle|*
%AMROUNDEDRECTD83*
21,1,2.0000,0.4800,0,0,0.0*
21,1,1.2800,1.2000,0,0,0.0*
1,1,0.7200,0.6400,-0.2400*
1,1,0.7200,-0.6400,-0.2400*
1,1,0.7200,-0.6400,0.2400*
1,1,0.7200,0.6400,0.2400*
%
%ADD83ROUNDEDRECTD83*%
%ADD84C,0.6000*%
%ADD85C,1.0000*%
G36*
X680000Y522730D02*
Y493000D01*
X254000D01*
X253000Y494000D01*
Y520000D01*
X256000Y524000D01*
X679348Y524000D01*
X680000Y522730D01*
D02*
G37*
G36*
X234800Y451000D02*
X243511Y451000D01*
X281756Y412756D01*
X283244Y411761D01*
X285000Y411412D01*
X298000D01*
X298000Y370000D01*
X217000Y370000D01*
Y417000D01*
X210000Y424000D01*
Y447000D01*
X202000Y455000D01*
X168000Y455000D01*
Y433000D01*
X159617Y424617D01*
X158119Y424915D01*
X157608Y426147D01*
X155845Y428445D01*
X153547Y430209D01*
X150872Y431317D01*
X148000Y431695D01*
X144000D01*
X141128Y431317D01*
X138453Y430209D01*
X136155Y428445D01*
X134391Y426147D01*
X133283Y423472D01*
X132905Y420600D01*
X133283Y417728D01*
X134391Y415052D01*
X136155Y412755D01*
X138453Y410992D01*
X141128Y409883D01*
X144000Y409505D01*
X148000D01*
X150872Y409883D01*
X153547Y410992D01*
X155845Y412755D01*
X157608Y415052D01*
X157730Y415346D01*
X159000Y415093D01*
Y400707D01*
X157730Y400454D01*
X157608Y400747D01*
X155845Y403045D01*
X153547Y404809D01*
X150872Y405917D01*
X148000Y406295D01*
X144000D01*
X141128Y405917D01*
X138453Y404809D01*
X136155Y403045D01*
X134391Y400747D01*
X133283Y398072D01*
X132905Y395200D01*
X133283Y392328D01*
X134391Y389652D01*
X136155Y387355D01*
X138453Y385592D01*
X141128Y384483D01*
X144000Y384105D01*
X148000D01*
X150872Y384483D01*
X153547Y385592D01*
X155845Y387355D01*
X157608Y389652D01*
X157730Y389946D01*
X159000Y389693D01*
Y388000D01*
X168000Y379000D01*
X168000Y366000D01*
X159536D01*
X158762Y367270D01*
X159095Y369800D01*
X158717Y372672D01*
X157608Y375348D01*
X155845Y377645D01*
X153547Y379408D01*
X150872Y380517D01*
X148000Y380895D01*
X144000D01*
X141128Y380517D01*
X138453Y379408D01*
X136155Y377645D01*
X134391Y375348D01*
X133283Y372672D01*
X132905Y369800D01*
X133195Y367602D01*
X131992Y367008D01*
X117000Y382000D01*
X102000D01*
X94000Y390000D01*
Y416000D01*
X107000Y429000D01*
Y469000D01*
X216800Y469000D01*
X234800Y451000D01*
D02*
G37*
G36*
X102000Y530000D02*
X102000Y435000D01*
X89000Y422000D01*
X89000Y323691D01*
X88098Y322341D01*
X87633Y320000D01*
X88098Y317659D01*
X89000Y316309D01*
X89000Y311000D01*
X170000Y311000D01*
Y320942D01*
X171120Y321541D01*
X171409Y321348D01*
X173750Y320882D01*
X176091Y321348D01*
X178076Y322674D01*
X178668Y323561D01*
X179818Y324330D01*
X195628Y340139D01*
X197750Y339717D01*
X200091Y340182D01*
X202076Y341509D01*
X203402Y343493D01*
X203867Y345834D01*
X203402Y348175D01*
X202123Y350089D01*
X203747Y351174D01*
X205073Y353159D01*
X205539Y355500D01*
X205073Y357841D01*
X203747Y359826D01*
X204221Y361037D01*
X205152Y362430D01*
X205618Y364771D01*
X205152Y367112D01*
X203826Y369097D01*
X201841Y370423D01*
X199500Y370888D01*
X197159Y370423D01*
X195567Y369359D01*
X190380D01*
X180494Y379244D01*
X179237Y380084D01*
X179076Y380326D01*
X177091Y381652D01*
X174750Y382118D01*
X172409Y381652D01*
X171330Y380931D01*
X170595Y381077D01*
X170000Y381570D01*
Y385000D01*
X164000Y391000D01*
Y410000D01*
X172000Y418000D01*
Y451941D01*
X200068Y451941D01*
X204721Y447954D01*
X205000Y447674D01*
X205000Y427201D01*
X207032Y423543D01*
X207174Y422830D01*
X207837Y421837D01*
X208158Y421516D01*
X212000Y414600D01*
X212000Y371000D01*
X214181Y368819D01*
X214837Y367837D01*
X215819Y367181D01*
X220000Y363000D01*
X303000Y363000D01*
Y411000D01*
X303412Y411412D01*
X306000D01*
X307756Y411761D01*
X309244Y412756D01*
X314489Y418000D01*
X541000Y418000D01*
X562000Y397000D01*
X565511D01*
X570975Y391537D01*
X571348Y389659D01*
X572674Y387674D01*
X574659Y386348D01*
X577000Y385882D01*
X579341Y386348D01*
X581326Y387674D01*
X581398Y387783D01*
X582668Y387398D01*
Y330626D01*
X542709Y285505D01*
X542225Y284788D01*
X541708Y284095D01*
X534958Y272026D01*
X534588Y271098D01*
X534206Y270176D01*
X534199Y270121D01*
X534178Y270070D01*
X534061Y269078D01*
X533931Y268088D01*
Y229000D01*
X534206Y226912D01*
X535012Y224965D01*
X536294Y223294D01*
X537966Y222012D01*
X539912Y221206D01*
X542000Y220931D01*
X544088Y221206D01*
X546035Y222012D01*
X547706Y223294D01*
X548988Y224965D01*
X549794Y226912D01*
X550069Y229000D01*
Y265984D01*
X551433Y268423D01*
X552662Y268102D01*
Y232793D01*
X553011Y231038D01*
X554006Y229549D01*
X567668Y215887D01*
X567260Y214684D01*
X566978Y214647D01*
X564303Y213538D01*
X562005Y211775D01*
X560242Y209478D01*
X559133Y206802D01*
X558755Y203930D01*
Y199930D01*
X559133Y197058D01*
X560242Y194382D01*
X562005Y192085D01*
X564303Y190322D01*
X566978Y189213D01*
X569850Y188835D01*
X572722Y189213D01*
X575397Y190322D01*
X577695Y192085D01*
X578259Y192819D01*
X579526Y192902D01*
X590662Y181766D01*
Y137736D01*
X589703Y137338D01*
X587405Y135575D01*
X585642Y133278D01*
X584533Y130602D01*
X584155Y127730D01*
Y123730D01*
X584533Y120858D01*
X585642Y118182D01*
X587405Y115885D01*
X589703Y114122D01*
X592378Y113013D01*
X595250Y112635D01*
X598122Y113013D01*
X600797Y114122D01*
X603095Y115885D01*
X604859Y118182D01*
X605967Y120858D01*
X606345Y123730D01*
Y127730D01*
X605967Y130602D01*
X604859Y133278D01*
X603095Y135575D01*
X600797Y137338D01*
X599838Y137736D01*
Y183667D01*
X599489Y185422D01*
X598494Y186911D01*
X597432Y187973D01*
X597840Y189176D01*
X598122Y189213D01*
X600797Y190322D01*
X603095Y192085D01*
X603209Y192233D01*
X604412Y191825D01*
Y175455D01*
X604761Y173699D01*
X605756Y172211D01*
X616062Y161904D01*
Y137736D01*
X615103Y137338D01*
X612805Y135575D01*
X611041Y133278D01*
X609933Y130602D01*
X609555Y127730D01*
Y123730D01*
X609933Y120858D01*
X611041Y118182D01*
X612805Y115885D01*
X615103Y114122D01*
X617778Y113013D01*
X620650Y112635D01*
X623522Y113013D01*
X626197Y114122D01*
X628495Y115885D01*
X630258Y118182D01*
X631367Y120858D01*
X631745Y123730D01*
Y127730D01*
X631367Y130602D01*
X630258Y133278D01*
X628495Y135575D01*
X626197Y137338D01*
X625238Y137736D01*
Y163805D01*
X624889Y165561D01*
X623894Y167049D01*
X613588Y177355D01*
Y188930D01*
X631412D01*
Y169250D01*
X631761Y167494D01*
X632756Y166006D01*
X645506Y153256D01*
X646994Y152261D01*
X648750Y151912D01*
X665693D01*
X667659Y150598D01*
X670000Y150133D01*
X672341Y150598D01*
X674326Y151924D01*
X675652Y153909D01*
X676117Y156250D01*
X675652Y158591D01*
X674326Y160576D01*
X672341Y161902D01*
X670000Y162367D01*
X667659Y161902D01*
X666441Y161088D01*
X650650D01*
X640588Y171150D01*
Y320500D01*
X640239Y322256D01*
X639244Y323744D01*
X626775Y336213D01*
X626402Y338091D01*
X625076Y340076D01*
X623091Y341402D01*
X620750Y341867D01*
X618858Y341491D01*
X617588Y342265D01*
Y346542D01*
X621744Y350698D01*
X622739Y352187D01*
X623088Y353942D01*
Y397000D01*
X683000Y397000D01*
Y394000D01*
Y275000D01*
X659000D01*
Y250000D01*
X683000D01*
Y124000D01*
Y3000D01*
X623059D01*
Y16798D01*
X623039Y16897D01*
X623052Y16998D01*
X623000Y17193D01*
Y20545D01*
X624270Y20628D01*
X624283Y20528D01*
X625392Y17852D01*
X627155Y15555D01*
X629453Y13792D01*
X632128Y12683D01*
X635000Y12305D01*
X637872Y12683D01*
X640547Y13792D01*
X642845Y15555D01*
X644609Y17852D01*
X645717Y20528D01*
X646095Y23400D01*
Y27400D01*
X645717Y30272D01*
X644609Y32947D01*
X642845Y35245D01*
X640547Y37009D01*
X637872Y38117D01*
X635000Y38495D01*
X632128Y38117D01*
X629453Y37009D01*
X627155Y35245D01*
X625392Y32947D01*
X624283Y30272D01*
X624270Y30172D01*
X623000Y30255D01*
Y33607D01*
X623052Y33802D01*
X623039Y33903D01*
X623059Y34002D01*
Y89000D01*
X623000Y89296D01*
Y92000D01*
X620295D01*
X620000Y92059D01*
X572000D01*
X572000Y92059D01*
X571704Y92000D01*
X571208D01*
X571077Y91875D01*
X570830Y91826D01*
X569837Y91163D01*
X569837Y91163D01*
X560508Y81833D01*
X547000Y69000D01*
X545059Y67059D01*
X415000D01*
X415000Y67059D01*
X413829Y66826D01*
X412837Y66163D01*
X412837Y66163D01*
X406733Y60059D01*
X373059Y60059D01*
Y77000D01*
X372826Y78170D01*
X372163Y79163D01*
X343163Y108163D01*
X342181Y108819D01*
X340000Y111000D01*
X100000D01*
Y163000D01*
X95000Y168000D01*
X92297D01*
X92001Y168059D01*
X92000Y168059D01*
X92000Y168059D01*
X77000Y168059D01*
X77000Y206000D01*
X74819Y208181D01*
X74163Y209163D01*
X73181Y209819D01*
X73000Y210000D01*
X72296D01*
X72000Y210059D01*
X71000D01*
Y220000D01*
Y238000D01*
X68000Y241000D01*
X49000Y241000D01*
Y234295D01*
X48941Y234000D01*
Y195000D01*
X28000Y195000D01*
Y212000D01*
X33000Y217000D01*
X33000Y241000D01*
X50181Y258181D01*
X51163Y258837D01*
X51819Y259819D01*
X52000Y260000D01*
Y260704D01*
X52059Y261000D01*
X52059Y307387D01*
X53329Y308424D01*
X55400Y308151D01*
X58402Y308546D01*
X61200Y309705D01*
X63602Y311548D01*
X65445Y313950D01*
X66604Y316748D01*
X66999Y319750D01*
X66604Y322752D01*
X65445Y325550D01*
X63602Y327952D01*
X61200Y329795D01*
X58402Y330954D01*
X55400Y331349D01*
X53329Y331077D01*
X52059Y332113D01*
Y333650D01*
X66900D01*
Y356650D01*
X52059D01*
Y373532D01*
X52169Y373686D01*
X53002Y373796D01*
X55800Y374955D01*
X58202Y376798D01*
X60045Y379200D01*
X61204Y381998D01*
X61599Y385000D01*
X61204Y388002D01*
X60045Y390800D01*
X58202Y393202D01*
X55800Y395045D01*
X53002Y396204D01*
X52000Y396336D01*
Y399064D01*
X53002Y399196D01*
X55800Y400355D01*
X58202Y402198D01*
X60045Y404600D01*
X61204Y407398D01*
X61599Y410400D01*
X61204Y413402D01*
X60045Y416200D01*
X58202Y418602D01*
X55800Y420445D01*
X53002Y421604D01*
X50000Y421999D01*
X49117Y421883D01*
X44000Y427000D01*
Y458396D01*
X44002Y458396D01*
X46800Y459555D01*
X49202Y461398D01*
X51045Y463800D01*
X52204Y466598D01*
X52599Y469600D01*
X52204Y472602D01*
X51045Y475400D01*
X49202Y477802D01*
X46800Y479645D01*
X44002Y480804D01*
X44000Y480804D01*
Y483796D01*
X44002Y483796D01*
X46800Y484955D01*
X49202Y486798D01*
X51045Y489200D01*
X52204Y491998D01*
X52599Y495000D01*
X52204Y498002D01*
X51045Y500800D01*
X49202Y503202D01*
X46800Y505045D01*
X44002Y506204D01*
X44000Y506204D01*
Y509000D01*
X34753D01*
X34558Y509052D01*
X34458Y509039D01*
X34358Y509059D01*
X4000Y509059D01*
X4000Y509059D01*
X3000Y509940D01*
Y530000D01*
X102000Y530000D01*
D02*
G37*
G36*
X608412Y319649D02*
Y319385D01*
X608761Y317629D01*
X609756Y316140D01*
X618412Y307484D01*
Y269596D01*
X617142Y269165D01*
X615415Y271415D01*
X612804Y273419D01*
X609763Y274678D01*
X606500Y275108D01*
X603237Y274678D01*
X600196Y273419D01*
X597585Y271415D01*
X595581Y268804D01*
X594322Y265763D01*
X593892Y262500D01*
X594322Y259237D01*
X595581Y256196D01*
X597585Y253585D01*
X600196Y251581D01*
X603237Y250322D01*
X606500Y249892D01*
X609763Y250322D01*
X612804Y251581D01*
X615415Y253585D01*
X616521Y255027D01*
X617871Y254699D01*
X617958Y254217D01*
X605756Y242014D01*
X604761Y240526D01*
X604412Y238770D01*
Y212035D01*
X603209Y211627D01*
X603095Y211775D01*
X600797Y213538D01*
X598122Y214647D01*
X595250Y215025D01*
X592378Y214647D01*
X589703Y213538D01*
X587405Y211775D01*
X586703Y210861D01*
X585215Y211008D01*
X584594Y211938D01*
X561838Y234694D01*
Y274734D01*
X597754Y310650D01*
X607239Y320135D01*
X608412Y319649D01*
D02*
G37*
G36*
X34358Y506000D02*
X34790Y504730D01*
X32798Y503202D01*
X30955Y500800D01*
X29796Y498002D01*
X29401Y495000D01*
X29796Y491998D01*
X30955Y489200D01*
X32798Y486798D01*
X35200Y484955D01*
X37998Y483796D01*
X40000Y483532D01*
Y481068D01*
X37998Y480804D01*
X35200Y479645D01*
X32798Y477802D01*
X30955Y475400D01*
X29796Y472602D01*
X29401Y469600D01*
X29796Y466598D01*
X30955Y463800D01*
X32798Y461398D01*
X35200Y459555D01*
X37998Y458396D01*
X40000Y458132D01*
X40000Y443401D01*
X40000Y416258D01*
X39955Y416200D01*
X38796Y413402D01*
X38401Y410400D01*
X38796Y407398D01*
X39955Y404600D01*
X40000Y404542D01*
X40000Y396000D01*
X41860Y394140D01*
X41798Y393202D01*
X39955Y390800D01*
X38796Y388002D01*
X38401Y385000D01*
X38796Y381998D01*
X39955Y379200D01*
X41798Y376798D01*
X44200Y374955D01*
X46998Y373796D01*
X49000Y373532D01*
Y356650D01*
X43900D01*
Y333650D01*
X49000D01*
Y329334D01*
X47198Y327952D01*
X45355Y325550D01*
X44196Y322752D01*
X43801Y319750D01*
X44196Y316748D01*
X45355Y313950D01*
X47198Y311548D01*
X49000Y310166D01*
X49000Y261000D01*
X23000Y261000D01*
Y243057D01*
X15595D01*
X13872Y242830D01*
X12266Y242165D01*
X10888Y241107D01*
X9830Y239729D01*
X9165Y238123D01*
X8938Y236400D01*
Y231600D01*
X9165Y229877D01*
X9830Y228272D01*
X10888Y226893D01*
X12266Y225835D01*
X13872Y225170D01*
X15595Y224943D01*
X23000D01*
Y191000D01*
X33409D01*
X34000Y190882D01*
X34591Y191000D01*
X48941D01*
Y175000D01*
X49000Y174705D01*
Y173270D01*
X49000Y173000D01*
X49000Y172000D01*
X49652D01*
X49652Y172000D01*
X51705D01*
X52000Y171941D01*
X56733D01*
X57000Y171674D01*
Y156000D01*
X62000Y150000D01*
Y132000D01*
X75941Y118059D01*
Y113000D01*
X75941Y97898D01*
X75941Y97898D01*
X76000Y97602D01*
Y93000D01*
X97000D01*
Y96705D01*
X97059Y97000D01*
Y105059D01*
X98000Y106000D01*
X341000D01*
X370000Y77000D01*
Y57000D01*
X408000Y57000D01*
X415000Y64000D01*
X547000D01*
X572000Y89000D01*
X620000D01*
Y34002D01*
X618730Y33571D01*
X617445Y35245D01*
X615147Y37009D01*
X612472Y38117D01*
X609600Y38495D01*
X606728Y38117D01*
X604053Y37009D01*
X601755Y35245D01*
X599991Y32947D01*
X598883Y30272D01*
X598505Y27400D01*
Y23400D01*
X598883Y20528D01*
X599991Y17852D01*
X601755Y15555D01*
X604053Y13792D01*
X606728Y12683D01*
X609600Y12305D01*
X612472Y12683D01*
X615147Y13792D01*
X617445Y15555D01*
X618730Y17229D01*
X620000Y16798D01*
Y3000D01*
X397000D01*
Y15605D01*
X398203Y16014D01*
X398555Y15555D01*
X400853Y13792D01*
X403528Y12683D01*
X406400Y12305D01*
X409272Y12683D01*
X411947Y13792D01*
X414245Y15555D01*
X416008Y17852D01*
X417117Y20528D01*
X417495Y23400D01*
Y27400D01*
X417117Y30272D01*
X416008Y32947D01*
X414245Y35245D01*
X411947Y37009D01*
X409272Y38117D01*
X406400Y38495D01*
X403528Y38117D01*
X400853Y37009D01*
X398555Y35245D01*
X398203Y34786D01*
X397000Y35195D01*
Y38000D01*
X395819Y39181D01*
X395163Y40163D01*
X394180Y40819D01*
X394000Y41000D01*
X393296D01*
X393000Y41059D01*
X369000Y41059D01*
X368705Y41000D01*
X366000Y41000D01*
X338999Y68001D01*
X337500Y69000D01*
X310715Y99000D01*
X300590Y99000D01*
X300000Y99117D01*
X239898D01*
X239000Y100016D01*
X239000Y102000D01*
X212681D01*
X212305Y102115D01*
X212157Y102100D01*
X212010Y102130D01*
X158178Y102304D01*
X158112Y102291D01*
X158046Y102302D01*
X157528Y102177D01*
X157007Y102075D01*
X156951Y102038D01*
X156885Y102022D01*
X156855Y102000D01*
X153000D01*
Y78059D01*
X142321D01*
X142123Y78019D01*
X141921Y78033D01*
X141674Y78000D01*
X141526D01*
X141279Y78033D01*
X141077Y78019D01*
X140879Y78059D01*
X131000Y78059D01*
Y101000D01*
X127200D01*
Y101000D01*
X124295D01*
X124000Y101059D01*
X108000D01*
X107786Y101016D01*
X107567Y101028D01*
X107488Y101000D01*
X105200D01*
Y99365D01*
X103527Y97134D01*
X74000Y64266D01*
X74000Y59000D01*
X3000D01*
Y118793D01*
X4196Y119221D01*
X4658Y118658D01*
X8160Y115784D01*
X12156Y113648D01*
X16491Y112333D01*
X21000Y111889D01*
X25509Y112333D01*
X29844Y113648D01*
X33840Y115784D01*
X37342Y118658D01*
X40216Y122160D01*
X42352Y126156D01*
X43667Y130491D01*
X44111Y135000D01*
X43667Y139509D01*
X42352Y143844D01*
X40216Y147840D01*
X37342Y151342D01*
X33840Y154216D01*
X29844Y156352D01*
X25509Y157667D01*
X25449Y157673D01*
X25512Y158943D01*
X28395D01*
X30118Y159170D01*
X31723Y159835D01*
X33102Y160893D01*
X34160Y162271D01*
X34825Y163877D01*
X35052Y165600D01*
Y170400D01*
X34825Y172123D01*
X34160Y173729D01*
X33102Y175107D01*
X31723Y176165D01*
X30118Y176830D01*
X28395Y177057D01*
X15595D01*
X13872Y176830D01*
X12266Y176165D01*
X10888Y175107D01*
X9830Y173729D01*
X9165Y172123D01*
X8938Y170400D01*
Y165600D01*
X9165Y163877D01*
X9830Y162271D01*
X10888Y160893D01*
X12266Y159835D01*
X13872Y159170D01*
X15595Y158943D01*
X16488D01*
X16551Y157673D01*
X16491Y157667D01*
X12156Y156352D01*
X8160Y154216D01*
X4658Y151342D01*
X4196Y150779D01*
X3000Y151207D01*
Y457690D01*
X4100Y458100D01*
X4270Y458100D01*
X27100D01*
Y481100D01*
X4270D01*
X4100Y481100D01*
X3000Y481510D01*
Y505000D01*
X4000Y506000D01*
X34358Y506000D01*
D02*
G37*
G36*
X67000Y211000D02*
Y207000D01*
X72000D01*
Y165000D01*
X92000Y165000D01*
X94000Y163000D01*
X94000Y97000D01*
X79898Y97000D01*
X79000Y97898D01*
X79000Y113000D01*
Y120000D01*
X67000Y132000D01*
Y150000D01*
X61000Y156000D01*
Y172000D01*
X58000Y175000D01*
X52000D01*
Y233000D01*
Y234000D01*
X67000D01*
Y211000D01*
D02*
G37*
G36*
X212001Y99071D02*
X212384Y97800D01*
X211674Y97326D01*
X204950Y90601D01*
X204763Y90678D01*
X201500Y91108D01*
X198237Y90678D01*
X195196Y89419D01*
X192585Y87415D01*
X190581Y84804D01*
X189322Y81763D01*
X188892Y78500D01*
X189322Y75237D01*
X190581Y72196D01*
X192585Y69585D01*
X195196Y67581D01*
X198237Y66322D01*
X201500Y65892D01*
X204763Y66322D01*
X207804Y67581D01*
X210415Y69585D01*
X212419Y72196D01*
X213678Y75237D01*
X214108Y78500D01*
X213678Y81763D01*
X213601Y81950D01*
X218534Y86882D01*
X234000D01*
Y66000D01*
X336000Y66000D01*
X365941Y36059D01*
X365941Y15059D01*
X344000D01*
X344000Y39000D01*
X265000Y39000D01*
X254000Y50000D01*
X250295D01*
X250000Y50059D01*
X250000Y50059D01*
X205942D01*
X179001Y77000D01*
X178326D01*
X178163Y77163D01*
X177171Y77826D01*
X176000Y78059D01*
X176000Y78059D01*
X167721D01*
X167523Y78019D01*
X167322Y78033D01*
X167000Y77990D01*
X166678Y78033D01*
X166477Y78019D01*
X166279Y78059D01*
X157000Y78059D01*
X157000Y97979D01*
X158168Y99245D01*
X212001Y99071D01*
D02*
G37*
G36*
X124000Y75000D02*
X140879Y75000D01*
X141600Y74905D01*
X142321Y75000D01*
X166279Y75000D01*
X167000Y74905D01*
X167721Y75000D01*
X176000D01*
X204000Y47000D01*
X250000D01*
X266000Y31000D01*
Y12000D01*
X369000D01*
X369000Y38000D01*
X393000Y38000D01*
X393000Y3000D01*
X255325D01*
X254917Y4203D01*
X255415Y4585D01*
X257419Y7196D01*
X258678Y10237D01*
X259108Y13500D01*
X258678Y16763D01*
X257419Y19804D01*
X255415Y22415D01*
X252804Y24419D01*
X249763Y25678D01*
X246500Y26108D01*
X243237Y25678D01*
X240196Y24419D01*
X237585Y22415D01*
X235581Y19804D01*
X234322Y16763D01*
X233892Y13500D01*
X234322Y10237D01*
X235581Y7196D01*
X237585Y4585D01*
X238083Y4203D01*
X237675Y3000D01*
X210325D01*
X209917Y4203D01*
X210415Y4585D01*
X212419Y7196D01*
X213678Y10237D01*
X214108Y13500D01*
X213678Y16763D01*
X212419Y19804D01*
X210415Y22415D01*
X207804Y24419D01*
X204763Y25678D01*
X201500Y26108D01*
X198237Y25678D01*
X195196Y24419D01*
X192585Y22415D01*
X190581Y19804D01*
X189322Y16763D01*
X188892Y13500D01*
X189322Y10237D01*
X190581Y7196D01*
X192585Y4585D01*
X193083Y4203D01*
X192675Y3000D01*
X174186D01*
X173565Y4108D01*
X175450Y7184D01*
X177860Y13001D01*
X179330Y19123D01*
X179824Y25400D01*
X179330Y31677D01*
X177860Y37799D01*
X175450Y43616D01*
X172161Y48984D01*
X168072Y53772D01*
X163284Y57861D01*
X157916Y61150D01*
X152099Y63560D01*
X145977Y65030D01*
X139700Y65524D01*
X133423Y65030D01*
X127301Y63560D01*
X121484Y61150D01*
X116116Y57861D01*
X111328Y53772D01*
X107239Y48984D01*
X103949Y43616D01*
X101540Y37799D01*
X100070Y31677D01*
X99576Y25400D01*
X100070Y19123D01*
X101540Y13001D01*
X103949Y7184D01*
X105835Y4108D01*
X105214Y3000D01*
X3000D01*
X3000Y40000D01*
X17000Y54000D01*
X75000Y54000D01*
X108000Y98000D01*
X124000D01*
X124000Y75000D01*
D02*
G37*
%LPC*%
G36*
X646000Y521000D02*
X624000D01*
Y495000D01*
X646000D01*
Y521000D01*
D02*
G37*
G36*
X427560D02*
X405560D01*
Y495000D01*
X427560D01*
Y521000D01*
D02*
G37*
G36*
X609600Y521095D02*
X606728Y520717D01*
X604053Y519608D01*
X601755Y517845D01*
X599991Y515547D01*
X598883Y512872D01*
X598505Y510000D01*
Y506000D01*
X598883Y503128D01*
X599991Y500452D01*
X601755Y498155D01*
X604053Y496391D01*
X606728Y495283D01*
X609600Y494905D01*
X612472Y495283D01*
X615147Y496391D01*
X617445Y498155D01*
X619208Y500452D01*
X620317Y503128D01*
X620695Y506000D01*
Y510000D01*
X620317Y512872D01*
X619208Y515547D01*
X617445Y517845D01*
X615147Y519608D01*
X612472Y520717D01*
X609600Y521095D01*
D02*
G37*
G36*
X584200D02*
X581328Y520717D01*
X578653Y519608D01*
X576355Y517845D01*
X574591Y515547D01*
X573483Y512872D01*
X573105Y510000D01*
Y506000D01*
X573483Y503128D01*
X574591Y500452D01*
X576355Y498155D01*
X578653Y496391D01*
X581328Y495283D01*
X584200Y494905D01*
X587072Y495283D01*
X589747Y496391D01*
X592045Y498155D01*
X593809Y500452D01*
X594917Y503128D01*
X595295Y506000D01*
Y510000D01*
X594917Y512872D01*
X593809Y515547D01*
X592045Y517845D01*
X589747Y519608D01*
X587072Y520717D01*
X584200Y521095D01*
D02*
G37*
G36*
X558800D02*
X555928Y520717D01*
X553253Y519608D01*
X550955Y517845D01*
X549192Y515547D01*
X548083Y512872D01*
X547705Y510000D01*
Y506000D01*
X548083Y503128D01*
X549192Y500452D01*
X550955Y498155D01*
X553253Y496391D01*
X555928Y495283D01*
X558800Y494905D01*
X561672Y495283D01*
X564347Y496391D01*
X566645Y498155D01*
X568409Y500452D01*
X569517Y503128D01*
X569895Y506000D01*
Y510000D01*
X569517Y512872D01*
X568409Y515547D01*
X566645Y517845D01*
X564347Y519608D01*
X561672Y520717D01*
X558800Y521095D01*
D02*
G37*
G36*
X533400D02*
X530528Y520717D01*
X527853Y519608D01*
X525555Y517845D01*
X523792Y515547D01*
X522683Y512872D01*
X522305Y510000D01*
Y506000D01*
X522683Y503128D01*
X523792Y500452D01*
X525555Y498155D01*
X527853Y496391D01*
X530528Y495283D01*
X533400Y494905D01*
X536272Y495283D01*
X538947Y496391D01*
X541245Y498155D01*
X543008Y500452D01*
X544117Y503128D01*
X544495Y506000D01*
Y510000D01*
X544117Y512872D01*
X543008Y515547D01*
X541245Y517845D01*
X538947Y519608D01*
X536272Y520717D01*
X533400Y521095D01*
D02*
G37*
G36*
X508000D02*
X505128Y520717D01*
X502453Y519608D01*
X500155Y517845D01*
X498391Y515547D01*
X497283Y512872D01*
X496905Y510000D01*
Y506000D01*
X497283Y503128D01*
X498391Y500452D01*
X500155Y498155D01*
X502453Y496391D01*
X505128Y495283D01*
X508000Y494905D01*
X510872Y495283D01*
X513547Y496391D01*
X515845Y498155D01*
X517608Y500452D01*
X518717Y503128D01*
X519095Y506000D01*
Y510000D01*
X518717Y512872D01*
X517608Y515547D01*
X515845Y517845D01*
X513547Y519608D01*
X510872Y520717D01*
X508000Y521095D01*
D02*
G37*
G36*
X482600D02*
X479728Y520717D01*
X477053Y519608D01*
X474755Y517845D01*
X472991Y515547D01*
X471883Y512872D01*
X471505Y510000D01*
Y506000D01*
X471883Y503128D01*
X472991Y500452D01*
X474755Y498155D01*
X477053Y496391D01*
X479728Y495283D01*
X482600Y494905D01*
X485472Y495283D01*
X488147Y496391D01*
X490445Y498155D01*
X492209Y500452D01*
X493317Y503128D01*
X493695Y506000D01*
Y510000D01*
X493317Y512872D01*
X492209Y515547D01*
X490445Y517845D01*
X488147Y519608D01*
X485472Y520717D01*
X482600Y521095D01*
D02*
G37*
G36*
X457200D02*
X454328Y520717D01*
X451653Y519608D01*
X449355Y517845D01*
X447592Y515547D01*
X446483Y512872D01*
X446105Y510000D01*
Y506000D01*
X446483Y503128D01*
X447592Y500452D01*
X449355Y498155D01*
X451653Y496391D01*
X454328Y495283D01*
X457200Y494905D01*
X460072Y495283D01*
X462747Y496391D01*
X465045Y498155D01*
X466809Y500452D01*
X467917Y503128D01*
X468295Y506000D01*
Y510000D01*
X467917Y512872D01*
X466809Y515547D01*
X465045Y517845D01*
X462747Y519608D01*
X460072Y520717D01*
X457200Y521095D01*
D02*
G37*
G36*
X391160D02*
X388288Y520717D01*
X385613Y519608D01*
X383315Y517845D01*
X381552Y515547D01*
X380443Y512872D01*
X380065Y510000D01*
Y506000D01*
X380443Y503128D01*
X381552Y500452D01*
X383315Y498155D01*
X385613Y496391D01*
X388288Y495283D01*
X391160Y494905D01*
X394032Y495283D01*
X396707Y496391D01*
X399005Y498155D01*
X400769Y500452D01*
X401877Y503128D01*
X402255Y506000D01*
Y510000D01*
X401877Y512872D01*
X400769Y515547D01*
X399005Y517845D01*
X396707Y519608D01*
X394032Y520717D01*
X391160Y521095D01*
D02*
G37*
G36*
X365760D02*
X362888Y520717D01*
X360213Y519608D01*
X357915Y517845D01*
X356152Y515547D01*
X355043Y512872D01*
X354665Y510000D01*
Y506000D01*
X355043Y503128D01*
X356152Y500452D01*
X357915Y498155D01*
X360213Y496391D01*
X362888Y495283D01*
X365760Y494905D01*
X368632Y495283D01*
X371307Y496391D01*
X373605Y498155D01*
X375368Y500452D01*
X376477Y503128D01*
X376855Y506000D01*
Y510000D01*
X376477Y512872D01*
X375368Y515547D01*
X373605Y517845D01*
X371307Y519608D01*
X368632Y520717D01*
X365760Y521095D01*
D02*
G37*
G36*
X340360D02*
X337488Y520717D01*
X334813Y519608D01*
X332515Y517845D01*
X330751Y515547D01*
X329643Y512872D01*
X329265Y510000D01*
Y506000D01*
X329643Y503128D01*
X330751Y500452D01*
X332515Y498155D01*
X334813Y496391D01*
X337488Y495283D01*
X340360Y494905D01*
X343232Y495283D01*
X345907Y496391D01*
X348205Y498155D01*
X349968Y500452D01*
X351077Y503128D01*
X351455Y506000D01*
Y510000D01*
X351077Y512872D01*
X349968Y515547D01*
X348205Y517845D01*
X345907Y519608D01*
X343232Y520717D01*
X340360Y521095D01*
D02*
G37*
G36*
X314960D02*
X312088Y520717D01*
X309413Y519608D01*
X307115Y517845D01*
X305352Y515547D01*
X304243Y512872D01*
X303865Y510000D01*
Y506000D01*
X304243Y503128D01*
X305352Y500452D01*
X307115Y498155D01*
X309413Y496391D01*
X312088Y495283D01*
X314960Y494905D01*
X317832Y495283D01*
X320507Y496391D01*
X322805Y498155D01*
X324568Y500452D01*
X325677Y503128D01*
X326055Y506000D01*
Y510000D01*
X325677Y512872D01*
X324568Y515547D01*
X322805Y517845D01*
X320507Y519608D01*
X317832Y520717D01*
X314960Y521095D01*
D02*
G37*
G36*
X289560D02*
X286688Y520717D01*
X284013Y519608D01*
X281715Y517845D01*
X279951Y515547D01*
X278843Y512872D01*
X278465Y510000D01*
Y506000D01*
X278843Y503128D01*
X279951Y500452D01*
X281715Y498155D01*
X284013Y496391D01*
X286688Y495283D01*
X289560Y494905D01*
X292432Y495283D01*
X295107Y496391D01*
X297405Y498155D01*
X299168Y500452D01*
X300277Y503128D01*
X300655Y506000D01*
Y510000D01*
X300277Y512872D01*
X299168Y515547D01*
X297405Y517845D01*
X295107Y519608D01*
X292432Y520717D01*
X289560Y521095D01*
D02*
G37*
G36*
X159000Y457000D02*
X133000D01*
Y435000D01*
X159000D01*
Y457000D01*
D02*
G37*
G36*
X66400Y481199D02*
X63398Y480804D01*
X60600Y479645D01*
X58198Y477802D01*
X56355Y475400D01*
X55196Y472602D01*
X54801Y469600D01*
X55196Y466598D01*
X56355Y463800D01*
X58198Y461398D01*
X60600Y459555D01*
X63398Y458396D01*
X66400Y458001D01*
X69402Y458396D01*
X72200Y459555D01*
X74602Y461398D01*
X76445Y463800D01*
X77604Y466598D01*
X77999Y469600D01*
X77604Y472602D01*
X76445Y475400D01*
X74602Y477802D01*
X72200Y479645D01*
X69402Y480804D01*
X66400Y481199D01*
D02*
G37*
G36*
X75400Y396599D02*
X72398Y396204D01*
X69600Y395045D01*
X67198Y393202D01*
X65355Y390800D01*
X64196Y388002D01*
X63801Y385000D01*
X64196Y381998D01*
X65355Y379200D01*
X67198Y376798D01*
X69600Y374955D01*
X72398Y373796D01*
X75400Y373401D01*
X78402Y373796D01*
X81200Y374955D01*
X83602Y376798D01*
X85445Y379200D01*
X86604Y381998D01*
X86999Y385000D01*
X86604Y388002D01*
X85445Y390800D01*
X83602Y393202D01*
X81200Y395045D01*
X78402Y396204D01*
X75400Y396599D01*
D02*
G37*
G36*
X298692Y240088D02*
X293308D01*
X291552Y239739D01*
X290063Y238744D01*
X275706Y224387D01*
X274711Y222898D01*
X274362Y221142D01*
Y178550D01*
X274711Y176794D01*
X275706Y175306D01*
X276225Y174787D01*
X276598Y172909D01*
X277924Y170924D01*
X278713Y170397D01*
X278837Y169133D01*
X277042Y167338D01*
X270151D01*
X259025Y178463D01*
X258652Y180341D01*
X257326Y182326D01*
X255341Y183652D01*
X253000Y184118D01*
X250659Y183652D01*
X248674Y182326D01*
X247348Y180341D01*
X246882Y178000D01*
X247348Y175659D01*
X248674Y173674D01*
X250659Y172348D01*
X252537Y171975D01*
X265006Y159506D01*
X266494Y158511D01*
X268250Y158162D01*
X278942D01*
X280698Y158511D01*
X282187Y159506D01*
X294244Y171563D01*
X295239Y173052D01*
X295588Y174808D01*
Y189439D01*
X296092Y189740D01*
X297362Y189019D01*
Y157860D01*
X296848Y157091D01*
X296383Y154750D01*
X296848Y152409D01*
X298174Y150424D01*
X300159Y149098D01*
X302500Y148632D01*
X304841Y149098D01*
X306826Y150424D01*
X308152Y152409D01*
X308617Y154750D01*
X308152Y157091D01*
X306826Y159076D01*
X306538Y159268D01*
Y192020D01*
X307741Y192429D01*
X308005Y192085D01*
X310303Y190322D01*
X312978Y189213D01*
X315850Y188835D01*
X318722Y189213D01*
X321397Y190322D01*
X323695Y192085D01*
X325458Y194382D01*
X326567Y197058D01*
X326945Y199930D01*
Y203930D01*
X326567Y206802D01*
X325458Y209478D01*
X323695Y211775D01*
X321397Y213538D01*
X318722Y214647D01*
X315850Y215025D01*
X312978Y214647D01*
X310303Y213538D01*
X308005Y211775D01*
X307741Y211431D01*
X306538Y211840D01*
Y213550D01*
X306189Y215306D01*
X305194Y216794D01*
X300588Y221401D01*
Y225067D01*
X301357Y226218D01*
X302659Y225348D01*
X305000Y224883D01*
X307341Y225348D01*
X309326Y226674D01*
X310652Y228659D01*
X311117Y231000D01*
X310652Y233341D01*
X309326Y235326D01*
X307341Y236652D01*
X305000Y237118D01*
X303802Y236879D01*
X301937Y238744D01*
X300448Y239739D01*
X298692Y240088D01*
D02*
G37*
G36*
X180314Y221117D02*
X143000D01*
X140659Y220652D01*
X138674Y219326D01*
X136674Y217326D01*
X135348Y215341D01*
X134882Y213000D01*
X135068Y212070D01*
X134262Y211088D01*
X125900D01*
X124025Y212963D01*
X123652Y214841D01*
X122326Y216826D01*
X120341Y218152D01*
X118000Y218617D01*
X115659Y218152D01*
X113674Y216826D01*
X112348Y214841D01*
X111882Y212500D01*
X112348Y210159D01*
X113674Y208174D01*
X115659Y206848D01*
X117537Y206475D01*
X120756Y203256D01*
X122244Y202261D01*
X122406Y202229D01*
X122775Y201014D01*
X117787Y196025D01*
X115909Y195652D01*
X113924Y194326D01*
X112598Y192341D01*
X112133Y190000D01*
X112598Y187659D01*
X113924Y185674D01*
X115909Y184348D01*
X118250Y183883D01*
X120591Y184348D01*
X122576Y185674D01*
X123902Y187659D01*
X124275Y189537D01*
X129401Y194662D01*
X150317D01*
X151909Y193598D01*
X154250Y193132D01*
X156591Y193598D01*
X158576Y194924D01*
X159902Y196909D01*
X160368Y199250D01*
X160101Y200592D01*
X161244Y201356D01*
X162659Y200410D01*
X165000Y199944D01*
X167341Y200410D01*
X169326Y201736D01*
X170652Y203721D01*
X171117Y206062D01*
X170809Y207612D01*
X171743Y208882D01*
X177780D01*
X201238Y185424D01*
X203223Y184098D01*
X205564Y183632D01*
X209750D01*
X212091Y184098D01*
X214076Y185424D01*
X215402Y187409D01*
X215868Y189750D01*
X215402Y192091D01*
X214076Y194076D01*
X212091Y195402D01*
X209750Y195868D01*
X208098D01*
X184639Y219326D01*
X182655Y220652D01*
X180314Y221117D01*
D02*
G37*
G36*
X544450Y215025D02*
X541578Y214647D01*
X538903Y213538D01*
X536605Y211775D01*
X534841Y209478D01*
X533733Y206802D01*
X533355Y203930D01*
Y199930D01*
X533733Y197058D01*
X534841Y194382D01*
X536605Y192085D01*
X538903Y190322D01*
X541578Y189213D01*
X544450Y188835D01*
X547322Y189213D01*
X549997Y190322D01*
X552295Y192085D01*
X554058Y194382D01*
X555167Y197058D01*
X555545Y199930D01*
Y203930D01*
X555167Y206802D01*
X554058Y209478D01*
X552295Y211775D01*
X549997Y213538D01*
X547322Y214647D01*
X544450Y215025D01*
D02*
G37*
G36*
X519050D02*
X516178Y214647D01*
X513503Y213538D01*
X511205Y211775D01*
X509441Y209478D01*
X508333Y206802D01*
X507955Y203930D01*
Y199930D01*
X508333Y197058D01*
X509441Y194382D01*
X511205Y192085D01*
X513503Y190322D01*
X516178Y189213D01*
X519050Y188835D01*
X521922Y189213D01*
X524597Y190322D01*
X526895Y192085D01*
X528658Y194382D01*
X529767Y197058D01*
X530145Y199930D01*
Y203930D01*
X529767Y206802D01*
X528658Y209478D01*
X526895Y211775D01*
X524597Y213538D01*
X521922Y214647D01*
X519050Y215025D01*
D02*
G37*
G36*
X493650D02*
X490778Y214647D01*
X488103Y213538D01*
X485805Y211775D01*
X484041Y209478D01*
X482933Y206802D01*
X482555Y203930D01*
Y199930D01*
X482933Y197058D01*
X484041Y194382D01*
X485805Y192085D01*
X488103Y190322D01*
X490778Y189213D01*
X493650Y188835D01*
X496522Y189213D01*
X499197Y190322D01*
X501495Y192085D01*
X503259Y194382D01*
X504367Y197058D01*
X504745Y199930D01*
Y203930D01*
X504367Y206802D01*
X503259Y209478D01*
X501495Y211775D01*
X499197Y213538D01*
X496522Y214647D01*
X493650Y215025D01*
D02*
G37*
G36*
X468250D02*
X465378Y214647D01*
X462703Y213538D01*
X460405Y211775D01*
X458642Y209478D01*
X457533Y206802D01*
X457155Y203930D01*
Y199930D01*
X457533Y197058D01*
X458642Y194382D01*
X460405Y192085D01*
X462703Y190322D01*
X465378Y189213D01*
X468250Y188835D01*
X471122Y189213D01*
X473797Y190322D01*
X476095Y192085D01*
X477859Y194382D01*
X478967Y197058D01*
X479345Y199930D01*
Y203930D01*
X478967Y206802D01*
X477859Y209478D01*
X476095Y211775D01*
X473797Y213538D01*
X471122Y214647D01*
X468250Y215025D01*
D02*
G37*
G36*
X417450D02*
X414578Y214647D01*
X411903Y213538D01*
X409605Y211775D01*
X407841Y209478D01*
X406733Y206802D01*
X406355Y203930D01*
Y199930D01*
X406733Y197058D01*
X407841Y194382D01*
X409605Y192085D01*
X411903Y190322D01*
X414578Y189213D01*
X417450Y188835D01*
X420322Y189213D01*
X422997Y190322D01*
X425295Y192085D01*
X427058Y194382D01*
X428167Y197058D01*
X428545Y199930D01*
Y203930D01*
X428167Y206802D01*
X427058Y209478D01*
X425295Y211775D01*
X422997Y213538D01*
X420322Y214647D01*
X417450Y215025D01*
D02*
G37*
G36*
X392050D02*
X389178Y214647D01*
X386503Y213538D01*
X384205Y211775D01*
X382441Y209478D01*
X381333Y206802D01*
X380955Y203930D01*
Y199930D01*
X381333Y197058D01*
X382441Y194382D01*
X384205Y192085D01*
X386503Y190322D01*
X389178Y189213D01*
X392050Y188835D01*
X394922Y189213D01*
X397597Y190322D01*
X399895Y192085D01*
X401659Y194382D01*
X402767Y197058D01*
X403145Y199930D01*
Y203930D01*
X402767Y206802D01*
X401659Y209478D01*
X399895Y211775D01*
X397597Y213538D01*
X394922Y214647D01*
X392050Y215025D01*
D02*
G37*
G36*
X366650D02*
X363778Y214647D01*
X361103Y213538D01*
X358805Y211775D01*
X357042Y209478D01*
X355933Y206802D01*
X355555Y203930D01*
Y199930D01*
X355933Y197058D01*
X357042Y194382D01*
X358805Y192085D01*
X361103Y190322D01*
X363778Y189213D01*
X366650Y188835D01*
X369522Y189213D01*
X372197Y190322D01*
X374495Y192085D01*
X376259Y194382D01*
X377367Y197058D01*
X377745Y199930D01*
Y203930D01*
X377367Y206802D01*
X376259Y209478D01*
X374495Y211775D01*
X372197Y213538D01*
X369522Y214647D01*
X366650Y215025D01*
D02*
G37*
G36*
X341250D02*
X338378Y214647D01*
X335703Y213538D01*
X333405Y211775D01*
X331642Y209478D01*
X330533Y206802D01*
X330155Y203930D01*
Y199930D01*
X330533Y197058D01*
X331642Y194382D01*
X333405Y192085D01*
X335703Y190322D01*
X338378Y189213D01*
X341250Y188835D01*
X344122Y189213D01*
X346797Y190322D01*
X349095Y192085D01*
X350858Y194382D01*
X351967Y197058D01*
X352345Y199930D01*
Y203930D01*
X351967Y206802D01*
X350858Y209478D01*
X349095Y211775D01*
X346797Y213538D01*
X344122Y214647D01*
X341250Y215025D01*
D02*
G37*
G36*
X171000Y199118D02*
X168659Y198652D01*
X166674Y197326D01*
X165348Y195341D01*
X164882Y193000D01*
X165348Y190659D01*
X166674Y188674D01*
X168659Y187348D01*
X171000Y186882D01*
X173341Y187348D01*
X175326Y188674D01*
X176652Y190659D01*
X177118Y193000D01*
X176652Y195341D01*
X175326Y197326D01*
X173341Y198652D01*
X171000Y199118D01*
D02*
G37*
G36*
X507000Y169059D02*
X475806D01*
X475596Y169017D01*
X475382Y169029D01*
X474208Y168865D01*
X473971Y168782D01*
X473722Y168756D01*
X473599Y168689D01*
X473461Y168661D01*
X473283Y168543D01*
X473081Y168472D01*
X472894Y168305D01*
X472674Y168186D01*
X472673Y168185D01*
X472585Y168076D01*
X472469Y167998D01*
X471374Y166904D01*
X471114Y166515D01*
X470822Y166149D01*
X470475Y165481D01*
X470438Y165353D01*
X470364Y165243D01*
X470273Y164784D01*
X470142Y164335D01*
X470157Y164202D01*
X470131Y164072D01*
Y158085D01*
X470364Y156915D01*
X471027Y155922D01*
X472019Y155259D01*
X473190Y155027D01*
X474096D01*
Y134194D01*
X474174Y133802D01*
X474201Y133402D01*
X474290Y133221D01*
X474329Y133024D01*
X474552Y132691D01*
X474729Y132332D01*
X475187Y131735D01*
X475987Y129803D01*
X476286Y127529D01*
Y123931D01*
X475987Y121657D01*
X475187Y119725D01*
X474729Y119128D01*
X474552Y118769D01*
X474329Y118436D01*
X474290Y118239D01*
X474201Y118058D01*
X474174Y117659D01*
X474096Y117266D01*
Y99360D01*
X473642Y99269D01*
X472649Y98606D01*
X470667Y96623D01*
X470004Y95631D01*
X469771Y94460D01*
X469771Y94460D01*
Y87792D01*
X470004Y86621D01*
X470667Y85629D01*
X471659Y84965D01*
X472830Y84733D01*
X504852D01*
X505827Y84539D01*
X506997Y84772D01*
X508171Y85258D01*
X508668Y85590D01*
X509163Y85921D01*
X509826Y86913D01*
X510059Y88084D01*
Y115496D01*
X510269Y115567D01*
X511329Y115789D01*
X513503Y114122D01*
X516178Y113013D01*
X519050Y112635D01*
X521922Y113013D01*
X524597Y114122D01*
X526895Y115885D01*
X528658Y118182D01*
X529767Y120858D01*
X530145Y123730D01*
Y127730D01*
X529767Y130602D01*
X528658Y133278D01*
X526895Y135575D01*
X524597Y137338D01*
X521922Y138447D01*
X519050Y138825D01*
X516178Y138447D01*
X513503Y137338D01*
X511329Y135670D01*
X510269Y135893D01*
X510059Y135964D01*
Y166000D01*
X509826Y167171D01*
X509163Y168163D01*
X508171Y168826D01*
X507000Y169059D01*
D02*
G37*
G36*
X569850Y138825D02*
X566978Y138447D01*
X564303Y137338D01*
X562005Y135575D01*
X560242Y133278D01*
X559133Y130602D01*
X558755Y127730D01*
Y123730D01*
X559133Y120858D01*
X560242Y118182D01*
X562005Y115885D01*
X564303Y114122D01*
X566978Y113013D01*
X569850Y112635D01*
X572722Y113013D01*
X575397Y114122D01*
X577695Y115885D01*
X579459Y118182D01*
X580567Y120858D01*
X580945Y123730D01*
Y127730D01*
X580567Y130602D01*
X579459Y133278D01*
X577695Y135575D01*
X575397Y137338D01*
X572722Y138447D01*
X569850Y138825D01*
D02*
G37*
G36*
X544450D02*
X541578Y138447D01*
X538903Y137338D01*
X536605Y135575D01*
X534841Y133278D01*
X533733Y130602D01*
X533355Y127730D01*
Y123730D01*
X533733Y120858D01*
X534841Y118182D01*
X536605Y115885D01*
X538903Y114122D01*
X541578Y113013D01*
X544450Y112635D01*
X547322Y113013D01*
X549997Y114122D01*
X552295Y115885D01*
X554058Y118182D01*
X555167Y120858D01*
X555545Y123730D01*
Y127730D01*
X555167Y130602D01*
X554058Y133278D01*
X552295Y135575D01*
X549997Y137338D01*
X547322Y138447D01*
X544450Y138825D01*
D02*
G37*
G36*
X442850D02*
X439978Y138447D01*
X437303Y137338D01*
X435005Y135575D01*
X433242Y133278D01*
X432133Y130602D01*
X431755Y127730D01*
Y123730D01*
X432133Y120858D01*
X433242Y118182D01*
X435005Y115885D01*
X437303Y114122D01*
X439978Y113013D01*
X442850Y112635D01*
X445722Y113013D01*
X448397Y114122D01*
X450695Y115885D01*
X452458Y118182D01*
X453567Y120858D01*
X453945Y123730D01*
Y127730D01*
X453567Y130602D01*
X452458Y133278D01*
X450695Y135575D01*
X448397Y137338D01*
X445722Y138447D01*
X442850Y138825D01*
D02*
G37*
G36*
X417450D02*
X414578Y138447D01*
X411903Y137338D01*
X409605Y135575D01*
X407841Y133278D01*
X406733Y130602D01*
X406355Y127730D01*
Y123730D01*
X406733Y120858D01*
X407841Y118182D01*
X409605Y115885D01*
X411903Y114122D01*
X414578Y113013D01*
X417450Y112635D01*
X420322Y113013D01*
X422997Y114122D01*
X425295Y115885D01*
X427058Y118182D01*
X428167Y120858D01*
X428545Y123730D01*
Y127730D01*
X428167Y130602D01*
X427058Y133278D01*
X425295Y135575D01*
X422997Y137338D01*
X420322Y138447D01*
X417450Y138825D01*
D02*
G37*
G36*
X392050D02*
X389178Y138447D01*
X386503Y137338D01*
X384205Y135575D01*
X382441Y133278D01*
X381333Y130602D01*
X380955Y127730D01*
Y123730D01*
X381333Y120858D01*
X382441Y118182D01*
X384205Y115885D01*
X386503Y114122D01*
X389178Y113013D01*
X392050Y112635D01*
X394922Y113013D01*
X397597Y114122D01*
X399895Y115885D01*
X401659Y118182D01*
X402767Y120858D01*
X403145Y123730D01*
Y127730D01*
X402767Y130602D01*
X401659Y133278D01*
X399895Y135575D01*
X397597Y137338D01*
X394922Y138447D01*
X392050Y138825D01*
D02*
G37*
G36*
X366650D02*
X363778Y138447D01*
X361103Y137338D01*
X358805Y135575D01*
X357042Y133278D01*
X355933Y130602D01*
X355555Y127730D01*
Y123730D01*
X355933Y120858D01*
X357042Y118182D01*
X358805Y115885D01*
X361103Y114122D01*
X363778Y113013D01*
X366650Y112635D01*
X369522Y113013D01*
X372197Y114122D01*
X374495Y115885D01*
X376259Y118182D01*
X377367Y120858D01*
X377745Y123730D01*
Y127730D01*
X377367Y130602D01*
X376259Y133278D01*
X374495Y135575D01*
X372197Y137338D01*
X369522Y138447D01*
X366650Y138825D01*
D02*
G37*
G36*
X341250D02*
X338378Y138447D01*
X335703Y137338D01*
X333405Y135575D01*
X331642Y133278D01*
X330533Y130602D01*
X330155Y127730D01*
Y123730D01*
X330533Y120858D01*
X331642Y118182D01*
X333405Y115885D01*
X335703Y114122D01*
X338378Y113013D01*
X341250Y112635D01*
X344122Y113013D01*
X346797Y114122D01*
X349095Y115885D01*
X350858Y118182D01*
X351967Y120858D01*
X352345Y123730D01*
Y127730D01*
X351967Y130602D01*
X350858Y133278D01*
X349095Y135575D01*
X346797Y137338D01*
X344122Y138447D01*
X341250Y138825D01*
D02*
G37*
G36*
X315850D02*
X312978Y138447D01*
X310303Y137338D01*
X308005Y135575D01*
X306241Y133278D01*
X305133Y130602D01*
X304755Y127730D01*
Y123730D01*
X305133Y120858D01*
X306241Y118182D01*
X308005Y115885D01*
X310303Y114122D01*
X312978Y113013D01*
X315850Y112635D01*
X318722Y113013D01*
X321397Y114122D01*
X323695Y115885D01*
X325458Y118182D01*
X326567Y120858D01*
X326945Y123730D01*
Y127730D01*
X326567Y130602D01*
X325458Y133278D01*
X323695Y135575D01*
X321397Y137338D01*
X318722Y138447D01*
X315850Y138825D01*
D02*
G37*
G36*
X290450D02*
X287578Y138447D01*
X284903Y137338D01*
X282605Y135575D01*
X280842Y133278D01*
X279733Y130602D01*
X279355Y127730D01*
Y123730D01*
X279733Y120858D01*
X280842Y118182D01*
X282605Y115885D01*
X284903Y114122D01*
X287578Y113013D01*
X290450Y112635D01*
X293322Y113013D01*
X295997Y114122D01*
X298295Y115885D01*
X300058Y118182D01*
X301167Y120858D01*
X301545Y123730D01*
Y127730D01*
X301167Y130602D01*
X300058Y133278D01*
X298295Y135575D01*
X295997Y137338D01*
X293322Y138447D01*
X290450Y138825D01*
D02*
G37*
%LPD*%
G36*
X507000Y88084D02*
X505827Y87598D01*
X505633Y87792D01*
X472830D01*
Y94460D01*
X474812Y96443D01*
X477155D01*
Y117266D01*
X477859Y118182D01*
X478967Y120858D01*
X479345Y123730D01*
Y127730D01*
X478967Y130602D01*
X477859Y133278D01*
X477155Y134194D01*
Y156643D01*
X475713Y158085D01*
X473190D01*
Y164072D01*
X473537Y164741D01*
X474632Y165836D01*
X474632Y165836D01*
X475806Y166000D01*
X507000D01*
Y88084D01*
D02*
G37*
%LPC*%
G36*
X493650Y138825D02*
X490778Y138447D01*
X488103Y137338D01*
X485805Y135575D01*
X484041Y133278D01*
X482933Y130602D01*
X482555Y127730D01*
Y123730D01*
X482933Y120858D01*
X484041Y118182D01*
X485805Y115885D01*
X488103Y114122D01*
X490778Y113013D01*
X493650Y112635D01*
X496522Y113013D01*
X499197Y114122D01*
X501495Y115885D01*
X503259Y118182D01*
X504367Y120858D01*
X504745Y123730D01*
Y127730D01*
X504367Y130602D01*
X503259Y133278D01*
X501495Y135575D01*
X499197Y137338D01*
X496522Y138447D01*
X493650Y138825D01*
D02*
G37*
G36*
X36100Y396500D02*
X13100D01*
Y373500D01*
X36100D01*
Y396500D01*
D02*
G37*
G36*
X30000Y356749D02*
X26998Y356354D01*
X24200Y355195D01*
X21798Y353352D01*
X19955Y350950D01*
X18796Y348152D01*
X18401Y345150D01*
X18796Y342148D01*
X19955Y339350D01*
X21798Y336948D01*
X24200Y335105D01*
X26998Y333946D01*
X30000Y333551D01*
X33002Y333946D01*
X35800Y335105D01*
X38202Y336948D01*
X40045Y339350D01*
X41204Y342148D01*
X41599Y345150D01*
X41204Y348152D01*
X40045Y350950D01*
X38202Y353352D01*
X35800Y355195D01*
X33002Y356354D01*
X30000Y356749D01*
D02*
G37*
G36*
Y331349D02*
X26998Y330954D01*
X24200Y329795D01*
X21798Y327952D01*
X19955Y325550D01*
X18796Y322752D01*
X18401Y319750D01*
X18796Y316748D01*
X19955Y313950D01*
X21798Y311548D01*
X24200Y309705D01*
X26998Y308546D01*
X30000Y308151D01*
X33002Y308546D01*
X35800Y309705D01*
X38202Y311548D01*
X40045Y313950D01*
X41204Y316748D01*
X41599Y319750D01*
X41204Y322752D01*
X40045Y325550D01*
X38202Y327952D01*
X35800Y329795D01*
X33002Y330954D01*
X30000Y331349D01*
D02*
G37*
G36*
X519000Y38400D02*
X497000D01*
Y12400D01*
X519000D01*
Y38400D01*
D02*
G37*
G36*
X584200Y38495D02*
X581328Y38117D01*
X578653Y37009D01*
X576355Y35245D01*
X574591Y32947D01*
X573483Y30272D01*
X573105Y27400D01*
Y23400D01*
X573483Y20528D01*
X574591Y17852D01*
X576355Y15555D01*
X578653Y13792D01*
X581328Y12683D01*
X584200Y12305D01*
X587072Y12683D01*
X589747Y13792D01*
X592045Y15555D01*
X593809Y17852D01*
X594917Y20528D01*
X595295Y23400D01*
Y27400D01*
X594917Y30272D01*
X593809Y32947D01*
X592045Y35245D01*
X589747Y37009D01*
X587072Y38117D01*
X584200Y38495D01*
D02*
G37*
G36*
X558800D02*
X555928Y38117D01*
X553253Y37009D01*
X550955Y35245D01*
X549192Y32947D01*
X548083Y30272D01*
X547705Y27400D01*
Y23400D01*
X548083Y20528D01*
X549192Y17852D01*
X550955Y15555D01*
X553253Y13792D01*
X555928Y12683D01*
X558800Y12305D01*
X561672Y12683D01*
X564347Y13792D01*
X566645Y15555D01*
X568409Y17852D01*
X569517Y20528D01*
X569895Y23400D01*
Y27400D01*
X569517Y30272D01*
X568409Y32947D01*
X566645Y35245D01*
X564347Y37009D01*
X561672Y38117D01*
X558800Y38495D01*
D02*
G37*
G36*
X533400D02*
X530528Y38117D01*
X527853Y37009D01*
X525555Y35245D01*
X523792Y32947D01*
X522683Y30272D01*
X522305Y27400D01*
Y23400D01*
X522683Y20528D01*
X523792Y17852D01*
X525555Y15555D01*
X527853Y13792D01*
X530528Y12683D01*
X533400Y12305D01*
X536272Y12683D01*
X538947Y13792D01*
X541245Y15555D01*
X543008Y17852D01*
X544117Y20528D01*
X544495Y23400D01*
Y27400D01*
X544117Y30272D01*
X543008Y32947D01*
X541245Y35245D01*
X538947Y37009D01*
X536272Y38117D01*
X533400Y38495D01*
D02*
G37*
G36*
X457200D02*
X454328Y38117D01*
X451653Y37009D01*
X449355Y35245D01*
X447592Y32947D01*
X446483Y30272D01*
X446105Y27400D01*
Y23400D01*
X446483Y20528D01*
X447592Y17852D01*
X449355Y15555D01*
X451653Y13792D01*
X454328Y12683D01*
X457200Y12305D01*
X460072Y12683D01*
X462747Y13792D01*
X465045Y15555D01*
X466809Y17852D01*
X467917Y20528D01*
X468295Y23400D01*
Y27400D01*
X467917Y30272D01*
X466809Y32947D01*
X465045Y35245D01*
X462747Y37009D01*
X460072Y38117D01*
X457200Y38495D01*
D02*
G37*
G36*
X431800D02*
X428928Y38117D01*
X426253Y37009D01*
X423955Y35245D01*
X422192Y32947D01*
X421083Y30272D01*
X420705Y27400D01*
Y23400D01*
X421083Y20528D01*
X422192Y17852D01*
X423955Y15555D01*
X426253Y13792D01*
X428928Y12683D01*
X431800Y12305D01*
X434672Y12683D01*
X437347Y13792D01*
X439645Y15555D01*
X441409Y17852D01*
X442517Y20528D01*
X442895Y23400D01*
Y27400D01*
X442517Y30272D01*
X441409Y32947D01*
X439645Y35245D01*
X437347Y37009D01*
X434672Y38117D01*
X431800Y38495D01*
D02*
G37*
%LPD*%
D11*
X582000Y285000D02*
X583500D01*
X583750Y284750D01*
X199000Y442000D02*
X201000D01*
X197000Y444000D02*
X199000Y442000D01*
X194000Y444000D02*
X197000D01*
X442850Y154109D02*
Y154650D01*
X468250Y125730D02*
Y128709D01*
D26*
X246500Y78500D02*
D03*
D63*
X671500Y262500D02*
D03*
D64*
X606500D02*
D03*
Y307500D02*
D03*
X671500D02*
D03*
X246500Y13500D02*
D03*
X201500D02*
D03*
Y78500D02*
D03*
D71*
X285000Y416000D02*
X306000D01*
X245000Y456000D02*
X285000Y416000D01*
X245000Y456000D02*
Y464250D01*
X306000Y416000D02*
X315000Y425000D01*
X296000Y219500D02*
Y229000D01*
Y219500D02*
X301950Y213550D01*
X298692Y235500D02*
X303192Y231000D01*
X293308Y235500D02*
X298692D01*
X278950Y221142D02*
X293308Y235500D01*
X278950Y178550D02*
Y221142D01*
X303192Y231000D02*
X305000D01*
X278950Y178550D02*
X282250Y175250D01*
X620750Y335750D02*
X636000Y320500D01*
X613000Y319385D02*
Y348442D01*
X618500Y353942D01*
Y424250D01*
X606000Y325385D02*
Y428250D01*
X597308Y316692D02*
X606000Y325385D01*
X553250Y481000D02*
X606000Y428250D01*
X594510Y313894D02*
X597308Y316692D01*
X554750Y488000D02*
X618500Y424250D01*
X613000Y319385D02*
X623000Y309385D01*
X636000Y169250D02*
Y320500D01*
X127500Y199250D02*
X154250D01*
X124000Y206500D02*
X164562D01*
X118250Y190000D02*
X127500Y199250D01*
X239000Y473000D02*
X266500D01*
X557250Y232793D02*
X581350Y208693D01*
X557250Y232793D02*
Y276635D01*
X588000Y412000D02*
X599000D01*
X547000Y453000D02*
X588000Y412000D01*
X550192Y473000D02*
X591000Y432192D01*
Y429096D02*
Y432192D01*
X301000Y458000D02*
X306000Y463000D01*
X551000D02*
X567000Y447000D01*
X306000Y463000D02*
X551000D01*
X609000Y238770D02*
X623000Y252770D01*
X609000Y175455D02*
X620650Y163805D01*
X609000Y175455D02*
Y238770D01*
X623000Y252770D02*
Y309385D01*
X636000Y169250D02*
X648750Y156500D01*
X205750Y482757D02*
Y495932D01*
X207507Y481000D02*
X553250D01*
X205750Y482757D02*
X207507Y481000D01*
X220291Y489757D02*
Y492243D01*
X224860Y496812D01*
X220291Y489757D02*
X222048Y488000D01*
X554750D01*
X302000Y448000D02*
X307000Y453000D01*
X547000D01*
X557250Y276635D02*
X594510Y313894D01*
X315000Y425000D02*
X544000D01*
X577000Y392000D01*
X173750Y327000D02*
X174324Y327574D01*
X194260Y345260D02*
X197176D01*
X174324Y327574D02*
X176574D01*
X194260Y345260D01*
X197176D02*
X197750Y345834D01*
X301000Y469000D02*
X305000Y473000D01*
X550192D01*
X231000Y465000D02*
X239000Y473000D01*
X266500D02*
X276250Y463250D01*
X164562Y206500D02*
X165000Y206062D01*
X205750Y495932D02*
X213360Y503542D01*
X224860Y496812D02*
Y525743D01*
X174750Y376000D02*
X177250D01*
X168000Y355250D02*
X199171D01*
X199421Y355500D01*
X140250Y356000D02*
X142750Y353500D01*
Y327250D02*
Y353500D01*
X276250Y463250D02*
X281000D01*
X94000Y320250D02*
Y329500D01*
X126500Y362000D02*
Y362000D01*
X94000Y329500D02*
X126500Y362000D01*
X93750Y320000D02*
X94000Y320250D01*
X581350Y197567D02*
Y208693D01*
Y197567D02*
X595250Y183667D01*
X118000Y212500D02*
X124000Y206500D01*
X253000Y178000D02*
X268250Y162750D01*
X213360Y503542D02*
Y508000D01*
X223103Y527500D02*
X224860Y525743D01*
X205460Y527500D02*
X223103D01*
X187960Y510000D02*
X205460Y527500D01*
X290450Y201930D02*
X291000Y201380D01*
X268250Y162750D02*
X278942D01*
X291000Y174808D01*
Y201380D01*
X301950Y155300D02*
X302500Y154750D01*
X301950Y155300D02*
Y213550D01*
X595250Y125730D02*
Y183667D01*
X620650Y125730D02*
Y163805D01*
X188479Y364771D02*
X199500D01*
X177250Y376000D02*
X188479Y364771D01*
X187960Y508000D02*
Y510000D01*
X648750Y156500D02*
X669750D01*
X670000Y156250D01*
D72*
X143000Y215000D02*
X180314D01*
X205564Y189750D01*
X141000Y213000D02*
X143000Y215000D01*
X205564Y189750D02*
X209750D01*
X201500Y78500D02*
X216000Y93000D01*
X300000D02*
X308500Y84500D01*
X216000Y93000D02*
X300000D01*
D74*
X152400Y508000D02*
D03*
D75*
X21000Y26000D02*
D03*
Y135000D02*
D03*
D76*
X187960Y508000D02*
D03*
X213360D02*
D03*
X238760D02*
D03*
X264160D02*
D03*
X289560D02*
D03*
X314960D02*
D03*
X340360D02*
D03*
X365760D02*
D03*
X391160D02*
D03*
X457200Y25400D02*
D03*
X431800D02*
D03*
X406400D02*
D03*
X381000D02*
D03*
X355600D02*
D03*
X330200D02*
D03*
X304800D02*
D03*
X457200Y508000D02*
D03*
X482600D02*
D03*
X508000D02*
D03*
X533400D02*
D03*
X558800D02*
D03*
X584200D02*
D03*
X609600D02*
D03*
X635000Y25400D02*
D03*
X609600D02*
D03*
X584200D02*
D03*
X558800D02*
D03*
X533400D02*
D03*
X141600Y88000D02*
D03*
X167000D02*
D03*
X442850Y125730D02*
D03*
X290450D02*
D03*
X315850D02*
D03*
X341250D02*
D03*
X366650D02*
D03*
X392050D02*
D03*
X417450D02*
D03*
X468250D02*
D03*
X493650D02*
D03*
X519050D02*
D03*
X544450D02*
D03*
X569850D02*
D03*
X595250D02*
D03*
X620650D02*
D03*
X290450Y201930D02*
D03*
X315850D02*
D03*
X341250D02*
D03*
X366650D02*
D03*
X392050D02*
D03*
X417450D02*
D03*
X442850D02*
D03*
X468250D02*
D03*
X493650D02*
D03*
X519050D02*
D03*
X544450D02*
D03*
X569850D02*
D03*
X595250D02*
D03*
D77*
X416560Y508000D02*
D03*
X279400Y25400D02*
D03*
X635000Y508000D02*
D03*
X508000Y25400D02*
D03*
X116200Y88000D02*
D03*
X620650Y201930D02*
D03*
D78*
X15600Y469600D02*
D03*
X24600Y385000D02*
D03*
X55400Y345150D02*
D03*
D79*
X41000Y469600D02*
D03*
X66400D02*
D03*
X15600Y495000D02*
D03*
X41000D02*
D03*
X66400D02*
D03*
X50000Y385000D02*
D03*
X75400D02*
D03*
X24600Y410400D02*
D03*
X50000D02*
D03*
X75400D02*
D03*
X30000Y319750D02*
D03*
X55400D02*
D03*
X30000Y345150D02*
D03*
D80*
X146000Y446000D02*
D03*
X662000Y469000D02*
D03*
D81*
X146000Y420600D02*
D03*
Y395200D02*
D03*
Y369800D02*
D03*
X662000Y443600D02*
D03*
Y418200D02*
D03*
D82*
X139700Y25400D02*
D03*
X660400Y76200D02*
D03*
X660000Y359000D02*
D03*
D83*
X21995Y168000D02*
D03*
Y234000D02*
D03*
D84*
X161839Y130363D02*
D03*
X53500Y436250D02*
D03*
X293000Y400000D02*
D03*
X334000Y77000D02*
D03*
X40000Y236000D02*
D03*
Y228000D02*
D03*
X284000Y400250D02*
D03*
X68000Y516000D02*
D03*
X296000Y229000D02*
D03*
X305000Y231000D02*
D03*
X34000Y221000D02*
D03*
Y197000D02*
D03*
Y205000D02*
D03*
X620750Y335750D02*
D03*
X393700Y86300D02*
D03*
X376500Y67500D02*
D03*
X97900Y417100D02*
D03*
X104700Y410300D02*
D03*
X114000Y407600D02*
D03*
X542000Y229000D02*
D03*
X177000Y414000D02*
D03*
X154250Y199250D02*
D03*
X171000Y193000D02*
D03*
X177000Y207000D02*
D03*
X209750Y189750D02*
D03*
X78500Y242000D02*
D03*
X171000Y407000D02*
D03*
X220000Y228000D02*
D03*
X582000Y285000D02*
D03*
X255500Y463250D02*
D03*
X599000Y412000D02*
D03*
X591000Y429096D02*
D03*
X569000Y326000D02*
D03*
X577000Y392000D02*
D03*
X567000Y447000D02*
D03*
X302000Y448000D02*
D03*
X301000Y458000D02*
D03*
Y469000D02*
D03*
X308500Y84500D02*
D03*
X165000Y206062D02*
D03*
X80000Y214000D02*
D03*
X194000Y444000D02*
D03*
X679000Y129000D02*
D03*
X231000Y465000D02*
D03*
X34000Y213000D02*
D03*
X375000Y96000D02*
D03*
X163000Y377000D02*
D03*
X174750Y376000D02*
D03*
X354000Y81000D02*
D03*
X613000Y74000D02*
D03*
X60000Y228000D02*
D03*
X159000Y279000D02*
D03*
X141000Y234750D02*
D03*
X199421Y355500D02*
D03*
X168000Y355250D02*
D03*
X142750Y327250D02*
D03*
X140250Y356000D02*
D03*
X173750Y327000D02*
D03*
X241125Y414282D02*
D03*
X241250Y433500D02*
D03*
X472500Y38250D02*
D03*
X281000Y463250D02*
D03*
X175250Y226750D02*
D03*
X245000Y464250D02*
D03*
X92312Y286391D02*
D03*
X477000Y161250D02*
D03*
X434750Y282750D02*
D03*
X646000Y196500D02*
D03*
X182500Y286250D02*
D03*
X198000Y228500D02*
D03*
X149250Y146000D02*
D03*
X442850Y154650D02*
D03*
X455000Y253000D02*
D03*
X93750Y320000D02*
D03*
X217750Y433500D02*
D03*
X253000Y178000D02*
D03*
X476500Y91250D02*
D03*
X141000Y213000D02*
D03*
X86250Y111250D02*
D03*
Y101250D02*
D03*
X57505Y218380D02*
D03*
X118000Y212500D02*
D03*
X118250Y190000D02*
D03*
X126500Y362000D02*
D03*
X197750Y345834D02*
D03*
X199500Y364771D02*
D03*
X670000Y156250D02*
D03*
X282250Y175250D02*
D03*
X302500Y154750D02*
D03*
D85*
X590737Y327566D02*
Y394649D01*
X542000Y229000D02*
Y268088D01*
X255500Y462601D02*
Y463250D01*
X313899Y439000D02*
X546387D01*
X542000Y268088D02*
X548750Y280156D01*
X549315Y436071D02*
X590737Y394649D01*
X546387Y439000D02*
X549315Y436071D01*
X310970D02*
X313899Y439000D01*
X301900Y427000D02*
X310970Y436071D01*
X548750Y280156D02*
X590737Y327566D01*
X291101Y427000D02*
X301900D01*
X255500Y462601D02*
X291101Y427000D01*
M02*
